<?xml version="1.0" encoding="UTF-8"?>
<svg version="1.1" xmlns="http://www.w3.org/2000/svg" width="395" height="395">
<path d="M0,0 L12,0 L20,15 L25,16 L30,8 L34,0 L46,0 L46,2 L58,3 L79,9 L86,12 L86,14 L91,16 L101,24 L109,33 L113,43 L115,56 L120,61 L125,64 L126,69 L132,74 L136,80 L136,93 L135,105 L137,105 L137,128 L135,134 L127,140 L113,148 L102,152 L91,155 L85,157 L81,157 L81,159 L67,163 L57,167 L43,176 L41,176 L42,171 L47,167 L49,164 L49,153 L44,148 L37,148 L31,149 L30,148 L30,143 L31,142 L32,130 L37,122 L47,120 L54,114 L56,114 L57,109 L65,110 L61,105 L52,103 L51,110 L47,114 L43,115 L31,115 L25,110 L24,101 L21,101 L21,109 L19,109 L18,112 L12,115 L3,115 L-4,112 L-7,108 L-7,103 L-15,104 L-19,109 L-13,108 L-6,117 L2,120 L8,122 L11,128 L10,135 L7,143 L-4,161 L-13,163 L-20,164 L-28,161 L-57,152 L-73,146 L-87,137 L-96,126 L-99,120 L-100,116 L-100,101 L-98,92 L-96,88 L-101,90 L-101,92 L-103,92 L-103,94 L-105,94 L-105,88 L-99,78 L-90,69 L-89,65 L-84,60 L-82,60 L-80,56 L-75,51 L-69,40 L-68,38 L-66,38 L-65,33 L-58,25 L-47,16 L-33,9 L-17,4 Z " fill="#D4945B" transform="translate(174,100)"/>
<path d="M0,0 L3,1 L0,6 L-7,13 L-12,18 L-22,25 L-28,29 L-31,31 L-35,31 L-35,33 L-40,35 L-47,35 L-47,37 L-66,42 L-75,45 L-78,45 L-79,48 L-92,50 L-95,57 L-101,60 L-103,65 L-98,63 L-94,63 L-92,71 L-91,88 L-91,117 L-85,117 L-85,86 L-87,70 L-87,60 L-80,58 L-68,55 L-59,52 L-42,49 L-33,46 L-13,40 L-7,37 L-3,38 L3,46 L12,61 L19,77 L21,88 L23,93 L23,106 L19,121 L17,121 L16,125 L10,134 L1,143 L-2,145 L-5,145 L-9,118 L-13,99 L-17,87 L-20,79 L-22,73 L-24,73 L-21,87 L-20,88 L-16,114 L-14,122 L-12,140 L-10,145 L-8,158 L-8,163 L-234,163 L-232,145 L-230,133 L-215,135 L-198,134 L-182,129 L-163,119 L-154,112 L-150,108 L-148,108 L-146,104 L-140,97 L-138,97 L-136,122 L-132,122 L-132,90 L-123,81 L-121,77 L-120,60 L-119,57 L-110,57 L-99,49 L-88,42 L-78,37 L-68,33 L-42,25 L-33,22 L-29,22 L-29,20 L-13,12 L-3,4 Z " fill="#7A787F" transform="translate(318,232)"/>
<path d="M0,0 L30,0 L36,1 L36,3 L53,6 L69,12 L78,15 L87,20 L104,31 L115,40 L125,51 L132,60 L136,64 L141,76 L146,86 L151,105 L152,113 L152,131 L150,138 L147,147 L143,155 L133,168 L127,173 L126,170 L128,170 L130,166 L135,160 L138,153 L141,146 L143,142 L144,129 L143,128 L141,140 L137,149 L131,158 L123,165 L107,174 L104,174 L104,176 L85,182 L59,190 L43,198 L30,207 L23,212 L14,211 L13,231 L9,237 L2,244 L2,276 L-3,277 L-4,276 L-5,267 L-5,251 L-7,251 L-9,255 L-15,262 L-23,269 L-37,278 L-51,285 L-65,289 L-82,290 L-92,289 L-97,287 L-98,299 L-101,317 L-108,317 L-107,304 L-106,299 L-104,299 L-104,290 L-103,284 L-108,282 L-119,270 L-124,260 L-126,248 L-126,229 L-124,224 L-122,224 L-120,221 L-119,248 L-114,262 L-109,270 L-105,275 L-98,279 L-85,282 L-68,282 L-50,277 L-34,268 L-24,260 L-18,255 L-13,249 L-11,249 L-11,246 L-16,245 L-18,244 L-18,242 L-23,241 L-24,235 L-18,237 L-13,239 L-11,240 L-5,240 L2,234 L3,232 L-4,230 L-13,221 L-19,207 L-20,202 L-20,190 L-28,191 L-32,189 L-33,192 L-42,188 L-51,185 L-67,181 L-77,178 L-86,173 L-93,170 L-106,160 L-114,149 L-114,147 L-116,147 L-114,154 L-113,157 L-110,160 L-106,166 L-102,171 L-105,171 L-110,167 L-119,154 L-125,142 L-127,136 L-127,104 L-122,88 L-113,67 L-101,51 L-92,41 L-82,32 L-67,22 L-59,18 L-57,16 L-40,10 L-30,6 L-14,2 Z M-11,22 L-28,26 L-44,31 L-58,38 L-72,50 L-77,56 L-77,60 L-79,60 L-85,70 L-86,73 L-91,78 L-93,82 L-95,82 L-100,87 L-102,92 L-110,100 L-116,110 L-116,116 L-114,116 L-114,114 L-112,114 L-112,112 L-107,110 L-110,117 L-111,123 L-111,138 L-108,146 L-100,157 L-91,164 L-79,170 L-49,180 L-32,185 L-31,186 L-24,185 L-15,183 L-6,168 L-2,161 L0,155 L-1,148 L-4,143 L-16,140 L-22,133 L-24,130 L-30,131 L-26,126 L-18,125 L-17,132 L-14,135 L-8,137 L1,137 L8,133 L8,131 L10,131 L10,123 L13,123 L14,132 L20,137 L32,137 L37,135 L41,130 L41,125 L50,127 L54,132 L46,131 L45,136 L41,138 L36,142 L26,144 L21,152 L20,164 L19,165 L19,170 L24,171 L26,170 L33,170 L38,175 L38,186 L33,192 L30,194 L30,198 L35,196 L42,191 L50,187 L65,182 L70,181 L70,179 L78,178 L86,175 L99,171 L113,164 L121,158 L125,154 L126,150 L126,127 L124,127 L125,115 L125,102 L118,93 L114,90 L113,85 L106,81 L104,78 L101,61 L95,51 L87,43 L77,36 L75,36 L75,34 L61,29 L47,25 L35,24 L35,22 L23,22 L15,37 L10,38 L5,30 L1,22 Z " fill="#232032" transform="translate(185,78)"/>
<path d="M0,0 L5,0 L8,4 L11,18 L11,20 L13,20 L12,7 L11,0 L24,0 L36,3 L43,5 L58,11 L66,15 L66,17 L71,19 L80,25 L90,33 L101,44 L112,58 L117,65 L117,68 L119,68 L129,84 L134,93 L133,96 L122,85 L111,78 L109,78 L121,90 L126,95 L135,105 L147,124 L155,141 L160,158 L161,164 L161,177 L159,174 L155,157 L150,146 L147,141 L144,136 L144,134 L142,134 L138,125 L130,114 L122,104 L116,97 L111,93 L102,88 L93,81 L90,79 L90,77 L84,75 L73,70 L54,64 L36,59 L29,57 L-3,57 L-19,60 L-42,66 L-47,69 L-63,75 L-74,82 L-88,93 L-91,93 L-92,96 L-100,103 L-109,116 L-116,127 L-123,137 L-128,147 L-130,147 L-131,155 L-133,161 L-135,161 L-137,170 L-138,170 L-137,153 L-132,141 L-127,128 L-119,114 L-108,100 L-96,87 L-88,79 L-84,75 L-97,84 L-105,90 L-111,95 L-110,90 L-100,73 L-86,54 L-78,44 L-69,34 L-58,25 L-45,16 L-30,8 L-15,3 Z " fill="#7C7980" transform="translate(186,15)"/>
<path d="M0,0 L18,0 L28,4 L41,17 L49,20 L51,21 L64,21 L76,16 L82,14 L99,14 L108,18 L115,24 L120,30 L120,37 L118,38 L113,47 L103,57 L91,65 L78,71 L75,71 L75,73 L57,79 L49,81 L40,83 L35,83 L30,79 L23,79 L17,80 L16,79 L16,74 L17,73 L18,61 L23,53 L33,51 L40,45 L42,45 L43,40 L51,41 L47,36 L38,34 L37,41 L33,45 L29,46 L17,46 L11,41 L10,32 L7,32 L7,40 L5,40 L4,43 L-2,46 L-11,46 L-18,43 L-21,39 L-21,34 L-29,35 L-33,40 L-27,39 L-20,48 L-12,51 L-6,53 L-3,59 L-4,66 L-7,74 L-13,83 L-20,83 L-45,79 L-55,75 L-75,67 L-86,62 L-97,55 L-105,45 L-105,36 L-102,28 L-98,23 L-90,17 L-81,13 L-67,13 L-51,18 L-46,20 L-32,20 L-27,18 L-17,10 L-10,4 L-4,1 Z " fill="#F9E8D5" transform="translate(188,169)"/>
<path d="M0,0 L28,0 L49,5 L61,11 L68,14 L85,25 L94,33 L102,40 L111,49 L121,62 L129,75 L140,92 L145,104 L150,115 L153,123 L164,147 L168,162 L170,173 L170,200 L168,204 L165,218 L160,229 L158,229 L156,235 L143,250 L137,255 L135,255 L136,258 L140,262 L150,278 L158,294 L163,310 L163,333 L161,342 L160,345 L158,345 L156,351 L149,361 L144,366 L134,375 L132,376 L132,386 L126,386 L123,368 L121,363 L119,345 L117,337 L113,311 L111,305 L110,296 L112,296 L116,303 L118,310 L122,322 L128,353 L129,359 L129,368 L136,364 L145,355 L151,344 L153,344 L155,333 L156,329 L156,316 L153,306 L151,297 L143,280 L134,266 L130,261 L125,262 L115,266 L93,272 L88,274 L71,277 L64,280 L54,282 L53,283 L47,283 L50,309 L50,333 L49,340 L43,340 L41,294 L40,286 L31,288 L32,283 L34,281 L39,279 L41,273 L46,273 L47,277 L63,272 L64,271 L82,268 L90,265 L99,265 L99,263 L119,257 L121,257 L121,255 L131,250 L141,242 L151,228 L157,217 L162,200 L163,191 L163,175 L160,160 L154,142 L144,123 L134,109 L125,98 L117,91 L109,83 L112,82 L122,89 L130,96 L135,101 L133,96 L123,78 L121,74 L119,74 L114,65 L105,54 L94,42 L85,34 L75,27 L68,23 L68,21 L64,20 L56,16 L45,12 L38,10 L26,7 L13,6 L15,13 L15,26 L13,26 L9,10 L7,7 L-4,8 L-20,12 L-36,19 L-49,27 L-62,37 L-71,45 L-80,56 L-93,73 L-101,86 L-108,98 L-107,99 L-100,92 L-91,86 L-84,81 L-82,81 L-84,85 L-92,92 L-101,101 L-110,112 L-117,122 L-125,136 L-133,157 L-136,167 L-137,176 L-138,198 L-140,195 L-141,190 L-143,191 L-143,168 L-140,153 L-135,140 L-127,124 L-123,113 L-117,100 L-110,86 L-95,63 L-88,54 L-77,41 L-68,32 L-51,19 L-39,12 L-34,10 L-24,6 L-19,4 L-13,4 L-13,2 Z " fill="#212036" transform="translate(184,9)"/>
<path d="M0,0 L30,0 L36,1 L36,3 L53,6 L69,12 L78,15 L87,20 L104,31 L115,40 L125,51 L132,60 L136,64 L141,76 L146,86 L151,105 L152,113 L152,131 L150,138 L147,147 L143,155 L133,168 L127,173 L126,170 L128,170 L130,166 L135,160 L138,153 L141,146 L143,142 L144,129 L143,128 L141,140 L137,149 L131,158 L123,165 L107,174 L104,174 L104,176 L85,182 L59,190 L43,198 L30,207 L23,212 L14,211 L13,231 L9,237 L2,244 L2,276 L-3,277 L-4,276 L-5,267 L-5,251 L-7,251 L-9,255 L-15,262 L-23,269 L-37,278 L-51,285 L-65,289 L-82,290 L-92,289 L-97,287 L-98,299 L-101,317 L-108,317 L-107,304 L-106,299 L-104,299 L-104,290 L-103,284 L-108,282 L-119,270 L-124,260 L-126,248 L-126,229 L-124,224 L-122,224 L-120,221 L-119,248 L-114,262 L-109,270 L-105,275 L-98,279 L-85,282 L-68,282 L-50,277 L-34,268 L-24,260 L-18,255 L-13,249 L-11,249 L-11,246 L-16,245 L-18,244 L-18,242 L-23,241 L-24,235 L-18,237 L-13,239 L-11,240 L-5,240 L2,234 L3,232 L-4,230 L-5,228 L-3,228 L-3,226 L-7,224 L-10,220 L-9,215 L-6,218 L-1,218 L5,213 L8,213 L10,207 L11,206 L15,205 L22,206 L22,204 L24,204 L26,199 L29,192 L30,192 L30,198 L42,190 L50,186 L65,181 L70,181 L70,179 L80,176 L97,171 L113,163 L121,157 L125,155 L132,141 L132,122 L130,111 L135,113 L140,116 L136,106 L129,97 L124,92 L124,90 L133,90 L128,85 L120,78 L112,67 L112,65 L110,65 L105,53 L104,49 L102,49 L95,35 L94,31 L90,30 L72,20 L56,15 L47,12 L34,9 L16,8 L-3,8 L-19,11 L-40,17 L-51,22 L-58,25 L-61,24 L-64,22 L-57,16 L-40,10 L-30,6 L-14,2 Z " fill="#232033" transform="translate(185,78)"/>
<path d="M0,0 L7,1 L17,6 L38,12 L42,13 L42,15 L32,23 L22,24 L13,29 L9,33 L13,33 L13,31 L15,30 L22,30 L20,34 L17,44 L19,44 L21,40 L29,32 L43,21 L54,13 L63,8 L68,8 L69,27 L72,35 L75,37 L77,41 L78,51 L69,59 L67,59 L67,61 L56,67 L55,69 L42,73 L39,73 L39,75 L32,76 L15,76 L5,73 L-5,65 L-10,56 L-11,62 L-13,61 L-14,57 L-14,36 L-12,26 L-7,11 L-1,1 Z " fill="#7B7980" transform="translate(79,269)"/>
<path d="M0,0 L1,0 L2,18 L3,8 L4,8 L4,21 L5,23 L7,19 L11,37 L16,51 L16,54 L18,54 L25,65 L31,72 L33,73 L33,75 L37,77 L47,83 L55,86 L55,88 L72,92 L88,95 L93,94 L102,90 L104,89 L110,89 L111,87 L112,86 L115,86 L122,87 L125,87 L127,104 L134,119 L141,126 L148,129 L146,133 L140,138 L134,138 L129,135 L124,134 L121,132 L122,138 L127,139 L127,141 L134,143 L134,146 L129,150 L124,156 L108,168 L95,175 L77,180 L60,180 L45,176 L39,172 L32,163 L27,152 L28,142 L32,147 L36,154 L44,160 L54,163 L78,163 L78,161 L91,157 L94,157 L95,154 L104,149 L106,149 L106,147 L115,140 L116,135 L114,128 L113,125 L110,123 L107,115 L107,96 L98,99 L83,109 L70,120 L62,127 L58,132 L56,132 L58,122 L61,118 L52,119 L52,121 L48,121 L49,118 L59,112 L61,111 L71,110 L79,103 L81,103 L81,101 L72,100 L54,94 L46,90 L39,89 L33,99 L27,116 L26,124 L24,121 L22,123 L21,122 L20,126 L20,145 L21,155 L19,151 L18,146 L18,124 L21,111 L23,108 L26,98 L32,87 L33,83 L21,72 L14,62 L7,51 L2,37 L0,21 Z " fill="#222137" transform="translate(40,181)"/>
<path d="M0,0 L19,0 L37,1 L50,4 L59,7 L75,12 L93,22 L97,24 L103,35 L105,39 L105,42 L107,42 L112,52 L113,58 L115,58 L122,68 L127,73 L136,81 L136,83 L127,83 L134,91 L141,101 L143,109 L138,107 L133,104 L136,115 L136,134 L131,144 L128,149 L127,147 L128,143 L129,120 L127,120 L127,95 L120,86 L116,83 L116,79 L109,75 L106,71 L103,54 L97,44 L90,37 L80,30 L78,29 L78,27 L72,26 L64,23 L50,19 L38,17 L38,15 L26,16 L19,30 L17,32 L12,31 L7,23 L4,17 L4,15 L-14,17 L-35,23 L-48,28 L-59,35 L-70,45 L-73,49 L-74,53 L-76,53 L-78,59 L-83,67 L-88,72 L-90,75 L-92,75 L-94,79 L-97,80 L-97,82 L-107,82 L-106,79 L-94,70 L-86,59 L-79,47 L-72,33 L-69,28 L-65,23 L-51,15 L-38,10 L-30,7 L-8,1 Z " fill="#A16848" transform="translate(182,85)"/>
<path d="M0,0 L5,2 L17,11 L22,14 L31,22 L35,28 L45,40 L50,49 L51,54 L53,54 L59,65 L62,70 L65,77 L69,94 L70,89 L71,89 L71,105 L69,117 L65,131 L56,147 L47,158 L36,166 L31,169 L28,169 L28,171 L10,177 L6,177 L6,179 L-6,181 L-11,183 L-29,186 L-38,189 L-43,191 L-46,191 L-47,188 L-51,186 L-38,184 L-37,182 L-22,177 L-10,174 L-6,174 L-6,172 L6,170 L6,168 L13,165 L22,159 L32,152 L39,144 L42,141 L42,137 L46,129 L49,120 L50,111 L52,110 L53,112 L52,125 L48,134 L45,139 L43,144 L36,153 L34,153 L35,155 L42,149 L52,135 L55,129 L58,115 L59,114 L59,96 L56,80 L52,67 L47,57 L43,47 L42,44 L39,43 L30,32 L21,22 L8,12 L-3,5 Z " fill="#5A5866" transform="translate(277,95)"/>
<path d="M0,0 L6,5 L6,7 L11,8 L11,10 L18,12 L18,15 L13,19 L8,25 L-8,37 L-21,44 L-39,49 L-56,49 L-71,45 L-77,41 L-84,32 L-89,21 L-88,11 L-84,16 L-80,23 L-72,29 L-62,32 L-38,32 L-38,30 L-25,26 L-22,26 L-21,23 L-12,18 L-10,18 L-10,16 L-1,9 L0,4 Z " fill="#5A5665" transform="translate(156,312)"/>
<path d="M0,0 L1,0 L1,5 L3,5 L3,28 L1,34 L-7,40 L-21,48 L-32,52 L-43,55 L-49,57 L-53,57 L-53,59 L-67,63 L-77,67 L-91,76 L-93,76 L-92,71 L-87,67 L-85,64 L-85,52 L-71,49 L-55,44 L-49,42 L-45,42 L-45,40 L-33,35 L-20,27 L-10,18 L-4,10 L-2,6 L0,6 Z " fill="#C2A9A5" transform="translate(308,200)"/>
<path d="M0,0 L2,0 L3,25 L2,25 L2,17 L-3,22 L-15,32 L-17,32 L-17,34 L-31,43 L-42,49 L-58,54 L-80,54 L-85,52 L-87,50 L-91,49 L-92,52 L-90,36 L-75,38 L-58,37 L-42,32 L-23,22 L-14,15 L-10,11 L-8,11 L-6,7 Z " fill="#585563" transform="translate(178,329)"/>
<path d="M0,0 L4,0 L6,3 L6,15 L1,24 L-2,25 L9,26 L13,28 L17,33 L17,39 L13,38 L11,37 L11,35 L3,36 L12,41 L14,43 L14,53 L12,55 L6,55 L7,50 L2,52 L0,58 L-5,66 L-10,70 L-15,70 L-18,66 L-21,59 L-23,52 L-23,42 L-12,25 L-8,17 L-4,8 L-1,1 Z " fill="#EFA499" transform="translate(194,227)"/>
<path d="M0,0 L5,5 L9,10 L20,17 L30,21 L42,26 L50,29 L60,33 L92,38 L87,47 L78,49 L71,50 L63,47 L34,38 L18,32 L4,23 L0,18 L-1,8 Z " fill="#C0A7A5" transform="translate(83,214)"/>
<path d="M0,0 L3,3 L9,14 L13,21 L15,28 L17,32 L26,29 L34,19 L36,10 L37,1 L38,1 L41,11 L41,24 L37,39 L35,39 L34,43 L28,52 L19,61 L16,63 L13,63 L9,36 L5,17 L1,5 Z " fill="#595565" transform="translate(300,314)"/>
<path d="M0,0 L4,1 L12,4 L26,4 L22,6 L16,6 L14,12 L12,14 L11,26 L10,27 L10,32 L23,31 L28,35 L29,37 L29,48 L23,55 L20,56 L19,55 L16,63 L14,66 L12,66 L12,68 L9,69 L3,68 L1,70 L-1,73 L-2,75 L-4,75 L-2,69 L1,62 L6,61 L5,66 L12,64 L12,54 L5,49 L1,47 L1,46 L10,46 L10,48 L16,50 L14,43 L11,39 L8,38 L-4,37 L-3,35 L0,34 L4,26 L4,14 L3,11 L-1,11 L-1,9 L-3,8 L-2,7 L-5,6 L-5,8 L-9,8 L-8,4 Z " fill="#3A232F" transform="translate(195,216)"/>
<path d="M0,0 L5,0 L6,6 L-8,8 L-19,12 L-28,15 L-38,19 L-52,28 L-65,38 L-74,47 L-83,58 L-93,73 L-102,87 L-110,95 L-111,92 L-100,73 L-86,54 L-78,44 L-69,34 L-58,25 L-45,16 L-30,8 L-15,3 Z " fill="#A4A2AB" transform="translate(186,15)"/>
<path d="M0,0 L1,0 L3,6 L7,32 L9,40 L11,58 L13,63 L15,76 L15,81 L-10,81 L-7,71 L-4,66 L-1,49 L0,42 Z " fill="#585564" transform="translate(295,314)"/>
<path d="M0,0 L3,0 L5,17 L12,32 L19,39 L26,42 L24,46 L18,51 L12,51 L3,45 L-5,34 L-9,23 L-10,10 L-8,5 Z " fill="#7A7780" transform="translate(162,268)"/>
<path d="M0,0 L1,3 L3,3 L8,13 L9,19 L11,19 L18,29 L23,34 L32,42 L32,44 L23,44 L30,52 L37,62 L39,70 L34,68 L29,65 L32,76 L32,95 L27,105 L24,110 L23,108 L24,104 L25,81 L23,81 L23,56 L20,44 L17,42 L17,40 L15,40 L6,27 L6,14 L4,16 L3,11 L-1,6 L-1,1 Z " fill="#855B4B" transform="translate(286,124)"/>
<path d="M0,0 L8,0 L15,4 L18,8 L19,11 L19,22 L15,28 L10,32 L-1,32 L-8,26 L-10,21 L-10,12 L-8,7 L-3,2 Z " fill="#241E2D" transform="translate(142,144)"/>
<path d="M0,0 L13,0 L25,3 L32,5 L47,11 L55,15 L55,17 L60,19 L69,25 L79,33 L90,44 L101,58 L106,65 L106,68 L108,68 L112,74 L113,80 L110,81 L106,74 L99,63 L92,54 L86,47 L81,42 L72,34 L62,27 L52,21 L34,13 L25,10 L11,7 L2,6 L0,3 Z " fill="#A09EA6" transform="translate(197,15)"/>
<path d="M0,0 L2,1 L1,5 L4,4 L3,9 L-3,12 L-5,17 L0,15 L4,15 L6,23 L6,32 L5,32 L4,21 L-2,22 L-15,22 L-15,33 L-19,42 L-23,48 L-29,54 L-31,54 L-32,57 L-33,69 L-34,69 L-34,42 L-25,33 L-23,29 L-22,12 L-21,9 L-12,9 L-1,1 Z " fill="#575463" transform="translate(220,280)"/>
<path d="M0,0 L7,0 L15,6 L18,11 L18,23 L12,30 L10,31 L-2,31 L-5,28 L-6,21 L2,19 L2,14 L1,13 L-4,13 L-6,18 L-8,18 L-9,21 L-9,6 L-3,1 Z " fill="#251F2E" transform="translate(243,144)"/>
<path d="M0,0 L6,1 L7,2 L7,7 L3,11 L-1,11 L-1,13 L5,14 L10,17 L17,19 L17,21 L24,22 L29,28 L22,28 L18,26 L5,24 L-31,24 L-40,25 L-39,23 L-22,18 L-14,18 L-13,10 L-11,7 L1,4 Z " fill="#5E5C6A" transform="translate(209,39)"/>
<path d="M0,0 L4,2 L18,12 L28,16 L35,19 L51,24 L63,27 L73,31 L73,33 L65,35 L55,35 L41,31 L33,27 L25,24 L18,20 L17,18 L11,15 L1,4 Z " fill="#7B7983" transform="translate(77,237)"/>
<path d="M0,0 L19,0 L37,1 L33,3 L31,3 L30,8 L27,14 L3,15 L-2,14 L1,13 L-4,4 L-19,6 L-26,7 L-23,5 L-8,1 Z " fill="#8D5640" transform="translate(182,85)"/>
<path d="M0,0 L4,1 L6,5 L-11,11 L-20,14 L-43,20 L-64,24 L-74,28 L-79,28 L-79,33 L-80,33 L-80,23 L-73,21 L-61,18 L-52,15 L-35,12 L-26,9 L-6,3 Z " fill="#565462" transform="translate(311,269)"/>
<path d="M0,0 L2,0 L6,7 L8,14 L12,26 L18,57 L19,67 L18,64 L16,64 L16,69 L14,65 L13,70 L11,67 L9,49 L7,41 L3,15 L1,9 Z " fill="#221F34" transform="translate(294,305)"/>
<path d="M0,0 L10,2 L14,4 L19,12 L20,13 L20,22 L16,33 L12,37 L8,38 L-1,38 L-9,35 L-12,26 L-12,7 L-10,4 L-8,4 L-8,2 Z M-1,3 L-7,6 L-10,9 L-10,24 L-9,21 L-7,21 L-5,16 L0,16 L1,17 L1,22 L-7,24 L-6,31 L-3,34 L9,34 L15,29 L17,26 L17,14 L12,7 L6,3 Z " fill="#BA8A68" transform="translate(244,141)"/>
<path d="M0,0 L4,0 L6,3 L6,15 L1,24 L-8,28 L-10,28 L-11,34 L-17,41 L-21,43 L-20,37 L-12,25 L-8,17 L-4,8 L-1,1 Z " fill="#E7B6B0" transform="translate(194,227)"/>
<path d="M0,0 L4,1 L12,4 L26,4 L22,6 L16,6 L14,12 L12,14 L11,26 L9,31 L5,32 L4,36 L6,37 L-4,37 L-3,35 L0,34 L4,26 L4,14 L3,11 L-1,11 L-1,9 L-3,8 L-2,7 L-5,6 L-5,8 L-9,8 L-8,4 Z " fill="#322D35" transform="translate(195,216)"/>
<path d="M0,0 L2,3 L5,19 L7,21 L12,21 L17,17 L18,10 L21,6 L33,5 L34,1 L36,3 L36,13 L34,15 L28,15 L29,10 L24,12 L22,18 L17,26 L12,30 L7,30 L4,26 L1,19 L-1,12 L-1,2 Z " fill="#CE8B8A" transform="translate(172,267)"/>
<path d="M0,0 L3,1 L-6,17 L-13,30 L-23,45 L-31,52 L-37,56 L-38,58 L-28,58 L-30,62 L-37,69 L-43,79 L-44,85 L-42,85 L-42,83 L-40,83 L-40,81 L-35,79 L-36,83 L-38,92 L-38,107 L-35,117 L-38,116 L-40,113 L-41,107 L-41,87 L-45,86 L-45,78 L-43,73 L-38,65 L-33,63 L-33,61 L-31,61 L-31,59 L-39,59 L-40,55 L-34,50 L-32,50 L-31,47 L-23,40 L-21,40 L-20,36 L-17,32 L-14,25 L-9,15 L-4,7 L-1,1 Z " fill="#301E23" transform="translate(113,109)"/>
<path d="M0,0 L8,0 L13,5 L13,10 L6,16 L0,18 L-8,18 L-10,15 L-10,7 L-4,1 Z " fill="#FAE8CD" transform="translate(241,116)"/>
<path d="M0,0 L11,0 L18,5 L19,15 L17,15 L17,17 L8,17 L1,14 L-3,10 L-3,4 L0,3 Z " fill="#FAE4C4" transform="translate(144,117)"/>
<path d="M0,0 L1,3 L-2,7 L-4,12 L-7,15 L-12,25 L-15,26 L-17,32 L-21,41 L-25,57 L-26,60 L-28,60 L-30,69 L-31,69 L-30,52 L-25,40 L-20,27 L-12,13 L-4,3 Z " fill="#8C8A93" transform="translate(79,116)"/>
<path d="M0,0 L6,0 L7,7 L-2,13 L-4,13 L-5,17 L-5,14 L-8,14 L-8,22 L-9,22 L-9,13 L-15,11 L-20,7 L-20,1 L-3,1 Z " fill="#9C6061" transform="translate(203,187)"/>
<path d="M0,0 L3,0 L1,10 L9,10 L24,13 L31,16 L36,17 L36,19 L20,17 L16,16 L-20,16 L-29,17 L-28,15 L-11,10 L-3,10 L-2,2 Z " fill="#282738" transform="translate(198,47)"/>
<path d="M0,0 L8,0 L15,4 L18,8 L16,12 L12,7 L10,4 L5,4 L1,6 L-1,8 L4,11 L6,13 L5,16 L1,11 L-4,11 L-6,13 L-6,21 L-4,26 L0,29 L9,29 L15,24 L16,21 L18,21 L18,11 L19,11 L19,22 L15,28 L10,32 L-1,32 L-8,26 L-10,21 L-10,12 L-8,7 L-3,2 Z " fill="#2C1A1C" transform="translate(142,144)"/>
<path d="M0,0 L4,1 L11,8 L16,13 L25,23 L37,42 L43,54 L44,61 L42,62 L35,50 L27,34 L23,30 L22,25 L20,25 L15,19 L10,11 L0,1 Z " fill="#878692" transform="translate(296,97)"/>
<path d="M0,0 L1,0 L1,14 L3,11 L6,12 L8,19 L8,38 L3,48 L0,53 L-1,51 L0,47 L1,24 L-1,24 L-1,12 Z " fill="#8A6351" transform="translate(310,181)"/>
<path d="M0,0 L7,1 L17,6 L38,12 L42,13 L42,15 L36,19 L36,17 L26,16 L7,9 L-3,6 L-1,1 Z " fill="#555361" transform="translate(79,269)"/>
<path d="M0,0 L5,0 L6,4 L9,4 L10,9 L6,10 L6,26 L3,26 L3,30 L1,30 L-1,18 L-1,13 L-10,15 L-9,10 L-7,8 L-2,6 Z " fill="#201E32" transform="translate(225,282)"/>
<path d="M0,0 L19,0 L15,10 L11,16 L6,17 L2,12 L-3,1 Z " fill="#AF7048" transform="translate(189,100)"/>
<path d="M0,0 L7,6 L15,10 L13,14 L7,19 L1,19 L-8,13 L-10,10 L-1,6 L1,5 Z " fill="#555162" transform="translate(173,300)"/>
<path d="M0,0 L1,2 L4,3 L-6,17 L-17,35 L-26,44 L-27,41 L-16,22 L-2,3 Z " fill="#9B99A3" transform="translate(102,66)"/>
<path d="M0,0 L13,0 L25,3 L32,5 L37,7 L35,11 L31,12 L17,8 L2,6 L0,3 Z " fill="#A5A3AC" transform="translate(197,15)"/>
<path d="M0,0 L1,4 L-2,11 L-4,17 L-8,19 L-8,24 L-10,24 L-11,27 L-13,27 L-12,32 L-15,36 L-17,36 L-19,40 L-22,41 L-22,43 L-32,43 L-31,40 L-19,31 L-11,20 L-4,8 Z M-14,29 Z " fill="#8F6756" transform="translate(107,124)"/>
<path d="M0,0 L6,0 L6,4 L1,7 L-9,11 L-18,17 L-21,21 L-27,24 L-38,33 L-39,30 L-32,23 L-18,12 L-7,4 Z " fill="#9D9BA5" transform="translate(140,278)"/>
<path d="M0,0 L7,0 L15,6 L18,11 L18,23 L15,26 L14,7 L9,6 L9,4 L3,5 L-2,8 L-4,10 L-6,18 L-8,18 L-9,21 L-9,6 L-3,1 Z " fill="#27191D" transform="translate(243,144)"/>
<path d="M0,0 L7,4 L11,9 L11,13 L13,13 L14,27 L9,32 L4,33 L9,25 L9,14 L6,8 L-1,4 L-9,4 L-14,7 L-17,11 L-19,24 L-20,24 L-20,14 L-18,5 L-9,1 Z " fill="#CA9771" transform="translate(151,141)"/>
<path d="M0,0 L13,0 L16,1 L17,3 L20,5 L15,4 L-3,4 L-11,7 L-19,13 L-27,20 L-31,23 L-41,24 L-38,20 L-31,19 L-28,18 L-28,16 L-26,16 L-26,14 L-16,6 L-9,2 Z " fill="#CB9C6E" transform="translate(191,166)"/>
<path d="M0,0 L5,5 L13,14 L20,24 L20,27 L22,27 L26,33 L27,39 L24,40 L20,33 L13,22 L6,13 L0,6 L-2,5 L-1,3 L1,4 Z " fill="#94939C" transform="translate(283,56)"/>
<path d="M0,0 L1,4 L2,11 L3,16 L6,17 L7,39 L2,34 L-1,28 L-2,24 L-2,9 Z " fill="#886253" transform="translate(76,192)"/>
<path d="M0,0 L8,0 L24,4 L31,7 L41,10 L59,20 L62,22 L61,26 L59,26 L58,23 L55,22 L55,20 L51,20 L51,18 L42,15 L38,13 L38,11 L32,10 L14,5 L0,2 Z " fill="#966B59" transform="translate(216,87)"/>
<path d="M0,0 L4,0 L3,4 L2,8 L0,9 L-4,20 L-6,30 L-8,34 L-9,44 L-10,44 L-10,21 L-4,4 Z " fill="#A09DA5" transform="translate(76,276)"/>
<path d="M0,0 L6,0 L5,3 L3,3 L3,5 L1,5 L-1,9 L-4,12 L-6,20 L-7,23 L-7,21 L-12,23 L-12,25 L-14,25 L-14,27 L-16,27 L-16,21 L-10,11 L-1,2 Z " fill="#866557" transform="translate(85,167)"/>
<path d="M0,0 L4,1 L1,10 L-11,12 L-20,15 L-24,14 L-14,6 L-6,2 Z " fill="#5E5D6B" transform="translate(194,47)"/>
<path d="M0,0 L2,1 L0,8 L-10,14 L-17,19 L-23,20 L-21,16 L-21,14 L-20,10 L-20,12 L-8,4 Z " fill="#2B2638" transform="translate(235,264)"/>
<path d="M0,0 L1,0 L2,10 L4,10 L5,5 L6,4 L11,4 L13,6 L13,11 L10,13 L5,14 L5,20 L10,21 L10,22 L19,23 L19,24 L7,24 L-1,15 L-1,2 Z " fill="#3B201A" transform="translate(233,152)"/>
<path d="M0,0 L5,0 L16,18 L21,29 L22,37 L20,37 L16,28 L8,14 L8,11 L5,10 L5,7 L3,7 L0,2 Z " fill="#9E9CA4" transform="translate(314,275)"/>
<path d="M0,0 L5,0 L8,2 L8,4 L-11,10 L-18,13 L-21,12 L-19,7 L-12,3 Z " fill="#1D192A" transform="translate(255,258)"/>
<path d="M0,0 L23,1 L26,3 L25,5 L19,3 L2,3 L-12,8 L-16,10 L-29,10 L-35,7 L-40,5 L-42,2 L-32,5 L-26,7 L-15,6 L-12,5 L-11,3 L-7,4 L-7,2 Z " fill="#C6976C" transform="translate(268,181)"/>
<path d="M0,0 L7,0 L13,5 L13,7 L5,6 L4,11 L-5,17 L-5,13 L-19,13 L-19,12 L-5,10 L-1,5 Z " fill="#413C3A" transform="translate(226,203)"/>
<path d="M0,0 L5,1 L6,13 L7,19 L7,25 L9,29 L12,32 L16,38 L20,43 L17,43 L12,39 L3,26 L4,19 L0,6 Z " fill="#2B293C" transform="translate(63,206)"/>
<path d="M0,0 L3,2 L3,12 L1,14 L-5,14 L-4,9 L-9,11 L-11,17 L-14,16 L-13,6 L-12,5 L0,4 Z " fill="#D0807A" transform="translate(205,268)"/>
<path d="M0,0 L6,0 L7,7 L6,4 L-2,8 L-4,10 L-9,9 L-15,5 L-16,3 L-20,2 L-20,1 L-3,1 Z " fill="#DF938D" transform="translate(203,187)"/>
<path d="M0,0 L19,0 L37,1 L33,3 L28,4 L25,3 L8,3 L-2,4 L-3,6 L-5,4 L-8,5 L-19,6 L-26,7 L-23,5 L-8,1 Z " fill="#845E53" transform="translate(182,85)"/>
<path d="M0,0 L4,4 L5,0 L11,20 L12,26 L12,39 L10,36 L6,19 L0,5 Z " fill="#86848F" transform="translate(335,153)"/>
<path d="M0,0 L3,3 L4,10 L9,17 L15,21 L15,23 L17,23 L19,25 L21,27 L23,35 L20,35 L16,30 L12,27 L12,23 L5,19 L2,15 Z " fill="#BA7B51" transform="translate(286,141)"/>
<path d="M0,0 L1,0 L-1,36 L-3,33 L-4,28 L-6,29 L-6,6 L-3,5 L-1,6 Z " fill="#1B1A30" transform="translate(47,171)"/>
<path d="M0,0 L8,0 L10,7 L15,10 L27,12 L27,13 L17,13 L12,12 L12,16 L8,14 L2,6 L-4,6 L-2,2 Z " fill="#3B3338" transform="translate(159,203)"/>
<path d="M0,0 L8,1 L19,6 L17,8 L20,11 L13,9 L13,11 L4,8 L-3,6 L-7,4 L-1,4 Z " fill="#26263D" transform="translate(225,13)"/>
<path d="M0,0 L8,1 L19,4 L29,8 L38,11 L36,12 L30,10 L30,12 L25,11 L5,5 L-2,3 Z " fill="#282436" transform="translate(225,82)"/>
<path d="M0,0 L1,2 L3,2 L3,5 L5,5 L3,9 L-5,22 L-6,18 L-7,18 L-18,19 L-16,17 L-9,17 L-7,12 Z " fill="#2B1D2A" transform="translate(179,244)"/>
<path d="M0,0 L5,5 L14,12 L16,14 L14,19 L9,17 L-1,9 L0,7 L-2,2 L0,2 Z " fill="#30293B" transform="translate(80,229)"/>
<path d="M0,0 L10,0 L19,3 L20,5 L18,5 L18,7 L8,7 L-10,4 L-10,3 L0,2 Z " fill="#1B1B31" transform="translate(206,10)"/>
<path d="M0,0 L1,0 L0,25 L-2,29 L-4,29 L-5,27 L-5,8 L-3,3 L-1,3 Z " fill="#1A1831" transform="translate(64,299)"/>
<path d="M0,0 L7,1 L24,1 L32,0 L29,2 L34,6 L27,8 L10,9 L10,8 L16,7 L17,4 L6,3 L0,1 Z M31,2 Z " fill="#29263C" transform="translate(93,359)"/>
<path d="M0,0 L4,0 L6,3 L6,15 L1,24 L-1,23 L-1,21 L-4,20 L-3,13 L1,7 L3,7 L2,15 L4,15 L3,6 L1,4 L3,4 L3,1 Z " fill="#EAA39C" transform="translate(194,227)"/>
<path d="M0,0 L3,2 L2,14 L2,21 L0,18 L-2,20 L-3,19 L-4,23 L-4,42 L-3,52 L-5,48 L-6,43 L-6,21 L-3,8 L-1,5 Z " fill="#272642" transform="translate(64,284)"/>
<path d="M0,0 L6,1 L20,1 L23,2 L23,4 L17,7 L15,7 L14,11 L11,8 L1,5 Z " fill="#1B1821" transform="translate(170,214)"/>
<path d="M0,0 L10,2 L16,6 L17,11 L11,11 L2,6 L-4,4 L-4,2 L-7,1 L0,2 Z " fill="#241D2D" transform="translate(255,92)"/>
<path d="M0,0 L1,0 L3,20 L3,25 L-2,26 L-3,25 L-3,7 Z " fill="#1D1B2F" transform="translate(184,329)"/>
<path d="M0,0 L2,1 L3,6 L-10,10 L-17,9 L-21,6 L-11,3 Z " fill="#2B263A" transform="translate(276,251)"/>
<path d="M0,0 L13,1 L17,3 L21,8 L21,14 L17,13 L15,12 L15,10 L6,10 L11,6 L10,5 L0,2 Z " fill="#C59C9B" transform="translate(190,252)"/>
<path d="M0,0 L1,0 L2,9 L-2,17 L-5,20 L-9,21 L-18,21 L-26,18 L-27,12 L-21,17 L-9,17 L-3,12 L-1,9 Z " fill="#C7936C" transform="translate(261,158)"/>
<path d="M0,0 L1,3 L-4,13 L-7,20 L-9,20 L-9,18 L-13,18 L-12,14 L-9,6 L-6,6 L-5,4 L-1,2 Z " fill="#1E1E33" transform="translate(62,134)"/>
<path d="M0,0 L6,1 L16,6 L17,10 L19,12 L11,11 L0,6 L-1,3 L1,2 Z " fill="#241E2E" transform="translate(94,243)"/>
<path d="M0,0 L30,0 L36,1 L36,2 L1,2 L0,6 L-11,6 L-11,5 L-22,5 L-20,3 Z " fill="#353042" transform="translate(185,78)"/>
<path d="M0,0 L3,0 L1,10 L9,10 L9,11 L3,12 L3,14 L-17,14 L-14,12 L-11,12 L-11,10 L-3,10 L-2,2 Z " fill="#303042" transform="translate(198,47)"/>
<path d="M0,0 L2,2 L5,2 L10,3 L17,3 L17,5 L11,5 L11,7 L18,6 L19,8 L13,8 L13,10 L8,11 L0,7 Z " fill="#1D1421" transform="translate(199,245)"/>
<path d="M0,0 L1,3 L-2,7 L-4,12 L-7,15 L-12,22 L-15,22 L-14,17 L-7,6 Z " fill="#A2A0A7" transform="translate(79,116)"/>
<path d="M0,0 L3,0 L8,8 L8,14 L5,14 L4,16 L-2,6 L-3,2 Z " fill="#1C1C30" transform="translate(316,93)"/>
<path d="M0,0 L1,2 L-1,3 L3,4 L-11,11 L-14,10 L-17,8 L-10,2 Z " fill="#221E2C" transform="translate(138,92)"/>
<path d="M0,0 L6,0 L6,4 L1,7 L-9,11 L-12,13 L-12,10 L-14,9 Z " fill="#9C9AA5" transform="translate(140,278)"/>
<path d="M0,0 L7,0 L10,1 L10,15 L9,13 L6,14 L6,1 L-6,6 L-12,10 L-15,9 L-3,1 Z " fill="#1E1B2E" transform="translate(142,275)"/>
<path d="M0,0 L7,0 L15,6 L18,11 L18,23 L15,26 L14,7 L9,6 L9,4 L-3,2 Z " fill="#412821" transform="translate(243,144)"/>
<path d="M0,0 L9,0 L6,2 L-5,4 L-10,7 L-18,8 L-23,10 L-27,8 L-15,3 Z M-12,5 Z M-24,10 Z " fill="#976A57" transform="translate(163,90)"/>
<path d="M0,0 L4,1 L12,4 L11,9 L7,8 L4,6 L-5,6 L-5,8 L-9,8 L-8,4 Z " fill="#C7C6CA" transform="translate(195,216)"/>
<path d="M0,0 L4,4 L8,11 L9,17 L4,15 L-1,12 L0,16 L-3,15 L-3,9 L1,7 L2,4 L0,4 Z M-4,15 Z " fill="#7A574E" transform="translate(316,177)"/>
<path d="M0,0 L6,1 L7,2 L7,7 L2,10 L-8,10 L-8,8 L-11,7 L1,4 Z " fill="#4F4D59" transform="translate(209,39)"/>
<path d="M0,0 L7,0 L8,3 L-2,5 L-7,10 L-7,18 L-6,20 L-9,19 L-11,13 L-10,6 Z " fill="#CF9E71" transform="translate(239,113)"/>
<path d="M0,0 L2,0 L3,8 L1,15 L-1,16 L-4,11 L-14,5 L-14,4 L-5,4 L-5,6 L1,8 Z " fill="#241524" transform="translate(210,258)"/>
<path d="M0,0 L3,0 L5,9 L7,12 L1,12 L0,13 L3,15 L-2,16 L-9,14 L-5,11 L-2,8 L0,8 Z " fill="#40383F" transform="translate(195,201)"/>
<path d="M0,0 L4,2 L3,14 L2,17 L-3,17 L-2,6 Z " fill="#A6A4AA" transform="translate(87,378)"/>
<path d="M0,0 L1,0 L2,14 L-1,14 L-2,14 L-3,47 L-4,47 L-5,10 L-3,10 L-3,6 L0,6 Z " fill="#393646" transform="translate(231,302)"/>
<path d="M0,0 L2,1 L-2,6 L-4,10 L-5,20 L-6,25 L-7,33 L-9,30 L-10,23 L-8,14 L-5,5 Z " fill="#CE956A" transform="translate(86,173)"/>
<path d="M0,0 L5,1 L7,3 L8,11 L3,9 L2,16 L1,16 L0,5 L-3,6 L-5,3 L0,2 Z " fill="#392D3D" transform="translate(212,253)"/>
<path d="M0,0 L3,3 L11,17 L10,20 L-2,8 L-2,5 L0,4 Z " fill="#8A8994" transform="translate(309,91)"/>
<path d="M0,0 L1,0 L2,12 L5,12 L5,14 L-7,22 L-9,22 L-8,17 L-3,13 L-1,10 Z " fill="#AEA3AE" transform="translate(224,254)"/>
<path d="M0,0 L3,0 L4,12 L6,12 L7,6 L8,6 L9,19 L5,20 L7,29 L5,28 L2,20 L2,1 Z " fill="#363444" transform="translate(145,276)"/>
<path d="M0,0 L1,0 L3,16 L-1,17 L-2,21 L0,22 L-10,22 L-9,20 L-6,19 L-2,11 Z " fill="#221521" transform="translate(201,231)"/>
<path d="M0,0 L9,3 L4,7 L2,7 L1,12 L0,10 L-3,10 L-3,8 L-6,7 L-10,5 L-8,4 L-2,4 L-1,2 L0,1 Z " fill="#2E2B40" transform="translate(152,266)"/>
<path d="M0,0 L9,0 L14,5 L8,3 L0,3 L-5,6 L-8,10 L-10,23 L-11,23 L-11,13 L-9,4 Z " fill="#BA8D6D" transform="translate(142,142)"/>
<path d="M0,0 L4,1 L16,9 L20,14 L17,15 L13,14 L0,1 Z " fill="#32303C" transform="translate(293,91)"/>
<path d="M0,0 L4,1 L1,3 L1,5 L-6,6 L-11,9 L-15,11 L-20,12 L-19,10 L-16,10 L-21,9 L-19,7 Z " fill="#252232" transform="translate(155,84)"/>
<path d="M0,0 L9,0 L16,2 L16,0 L28,0 L29,1 L28,9 L25,9 L26,8 L26,1 L17,3 L0,2 L2,9 L3,11 L-1,9 L-1,1 Z " fill="#E4B6A7" transform="translate(183,186)"/>
<path d="M0,0 L2,2 L2,6 L5,5 L6,7 L8,7 L8,15 L14,20 L14,22 L10,21 L4,15 L0,5 Z " fill="#1F1729" transform="translate(168,284)"/>
<path d="M0,0 L14,0 L30,5 L35,7 L31,8 L22,6 L22,4 L13,3 L11,2 L1,2 L-5,5 L-9,4 Z " fill="#EAC69D" transform="translate(107,182)"/>
<path d="M0,0 L7,0 L12,4 L13,6 L13,17 L10,14 L9,10 L5,6 L6,5 L-1,5 L-1,3 L5,3 L5,1 L0,1 Z " fill="#2B212E" transform="translate(211,247)"/>
<path d="M0,0 L4,1 L9,11 L10,18 L8,19 L1,7 Z " fill="#92919A" transform="translate(330,140)"/>
<path d="M0,0 L10,0 L10,1 L2,2 L2,5 L2,8 L-9,8 L-9,10 L-13,10 L-12,7 L-2,1 Z " fill="#2F2D3F" transform="translate(101,292)"/>
<path d="M0,0 L1,2 L-5,9 L-12,12 L-26,12 L-27,10 L-14,9 L-9,7 Z " fill="#F2D4AE" transform="translate(170,180)"/>
<path d="M0,0 L5,1 L6,13 L7,19 L5,22 L0,6 Z " fill="#423F53" transform="translate(63,206)"/>
<path d="M0,0 L1,0 L1,11 L-2,15 L-7,15 L-8,5 L-6,8 L-3,8 L-3,2 L-1,3 Z " fill="#1D1526" transform="translate(222,254)"/>
<path d="M0,0 L4,2 L5,0 L14,14 L13,16 L11,15 L10,17 L4,6 L0,2 Z " fill="#898792" transform="translate(319,125)"/>
<path d="M0,0 L9,0 L9,2 L7,2 L7,6 L9,6 L14,15 L15,19 L11,15 L5,7 L0,2 Z " fill="#301E27" transform="translate(309,168)"/>
<path d="M0,0 L3,1 L2,6 L-4,11 L-5,7 L-19,7 L-19,6 L-5,4 Z " fill="#3E393F" transform="translate(226,209)"/>
<path d="M0,0 L19,0 L37,1 L33,3 L28,4 L25,3 L11,3 L11,2 L-8,2 L-8,1 Z " fill="#714F4A" transform="translate(182,85)"/>
<path d="M0,0 L4,1 L1,2 L30,3 L30,4 L-5,5 L-14,6 L-13,4 Z " fill="#3F3E4D" transform="translate(183,58)"/>
<path d="M0,0 L1,0 L1,5 L-5,9 L-7,9 L-7,11 L-10,12 L-10,6 L-6,2 Z " fill="#A9A7B1" transform="translate(163,269)"/>
<path d="M0,0 L8,1 L12,3 L10,4 L10,7 L2,6 L-3,4 L-3,2 L0,2 Z " fill="#1E192B" transform="translate(138,259)"/>
<path d="M0,0 L2,2 L1,15 L-2,23 L-4,21 L-6,22 L-3,13 L-1,1 Z " fill="#464557" transform="translate(328,205)"/>
<path d="M0,0 L1,3 L-2,6 L-3,12 L-13,12 L-12,9 Z " fill="#7C5C4F" transform="translate(88,155)"/>
<path d="M0,0 L8,0 L6,3 L-7,6 L-12,5 L-11,3 L-8,3 L-8,1 Z " fill="#1E1929" transform="translate(167,82)"/>
<path d="M0,0 L5,1 L4,3 L2,3 L0,7 L-2,9 L-4,16 L-5,33 L-6,33 L-6,12 L-2,3 Z " fill="#CA9D78" transform="translate(88,189)"/>
<path d="M0,0 L3,2 L-2,7 L-4,15 L-5,18 L-5,16 L-9,18 L-10,14 L-7,9 Z " fill="#A37255" transform="translate(83,172)"/>
<path d="M0,0 L3,0 L3,2 L5,2 L9,8 L10,14 L7,15 L3,8 L0,4 Z " fill="#9C9AA2" transform="translate(300,81)"/>
<path d="M0,0 L4,1 L3,5 L-2,6 L-11,6 L-12,4 L-10,3 L-12,1 Z " fill="#18141D" transform="translate(218,215)"/>
<path d="M0,0 L19,1 L20,4 L15,3 L1,3 L-11,9 L-15,10 L-14,6 L-8,4 Z " fill="#C89567" transform="translate(106,180)"/>
<path d="M0,0 L2,0 L4,6 L6,6 L6,10 L10,12 L14,17 L21,21 L21,23 L16,22 L9,16 L0,3 Z " fill="#2B1B23" transform="translate(296,140)"/>
<path d="M0,0 L1,0 L2,20 L5,30 L2,29 L0,26 L-1,20 L-1,2 Z " fill="#2D1E27" transform="translate(73,196)"/>
<path d="M0,0 L1,4 L2,25 L-2,27 L-2,12 Z " fill="#656372" transform="translate(48,173)"/>
<path d="M0,0 L2,1 L9,16 L10,21 L8,20 L4,11 L0,11 L-1,13 L-3,7 L0,6 Z " fill="#282642" transform="translate(333,287)"/>
<path d="M0,0 L4,1 L1,3 L7,4 L11,5 L-1,8 L-6,9 L-4,8 L-4,6 L-6,5 L-5,2 Z " fill="#2F2E42" transform="translate(239,283)"/>
<path d="M0,0 L17,0 L26,4 L23,5 L15,2 L2,1 L2,3 L-2,5 L-9,4 L-6,2 Z M-6,5 Z " fill="#F4D3AE" transform="translate(270,183)"/>
<path d="M0,0 L2,2 L5,7 L9,10 L20,10 L23,10 L20,13 L7,13 L4,10 L1,9 Z " fill="#B4896D" transform="translate(132,165)"/>
<path d="M0,0 L3,1 L-2,6 L-5,10 L-7,10 L-9,15 L-12,18 L-16,17 L-1,1 Z " fill="#898791" transform="translate(92,100)"/>
<path d="M0,0 L1,0 L2,14 L-1,14 L-1,18 L-3,18 L-3,6 Z " fill="#141122" transform="translate(229,294)"/>
<path d="M0,0 L1,4 L2,11 L3,16 L6,17 L6,36 L5,36 L4,18 L-1,17 L-1,3 Z " fill="#9C735F" transform="translate(76,192)"/>
<path d="M0,0 L6,1 L11,9 L12,10 L12,19 L10,19 L7,9 L2,4 Z " fill="#BE9274" transform="translate(252,144)"/>
<path d="M0,0 L1,4 L-2,11 L-4,17 L-9,20 L-10,18 L-4,8 Z " fill="#835D51" transform="translate(107,124)"/>
<path d="M0,0 L2,3 L5,19 L0,17 L-1,12 L-1,2 Z " fill="#C19294" transform="translate(172,267)"/>
<path d="M0,0 L4,0 L6,3 L6,15 L1,24 L-1,23 L0,19 L2,19 L3,15 L3,6 L1,4 L3,4 L3,1 Z " fill="#AF848A" transform="translate(194,227)"/>
<path d="M0,0 L8,0 L15,4 L18,8 L16,12 L12,7 L9,3 L-3,3 Z " fill="#442A22" transform="translate(142,144)"/>
<path d="M0,0 L2,1 L3,2 L5,6 L-5,11 L-6,4 Z " fill="#2B2436" transform="translate(121,98)"/>
<path d="M0,0 L3,3 L2,10 L-1,14 L-7,17 L-12,15 L-9,13 L-2,9 L0,7 Z " fill="#D1A276" transform="translate(253,119)"/>
<path d="M0,0 L2,3 L8,12 L12,21 L11,25 L9,19 L7,19 L0,5 Z " fill="#291C21" transform="translate(280,108)"/>
<path d="M0,0 L5,2 L6,5 L5,9 L4,27 L3,27 L2,11 Z " fill="#402A2A" transform="translate(315,189)"/>
<path d="M0,0 L1,2 L1,10 L8,10 L13,8 L17,9 L8,13 L0,13 L-2,10 L-2,2 Z " fill="#F6D9B4" transform="translate(233,121)"/>
<path d="M0,0 L3,1 L3,4 L5,4 L5,17 L3,17 L0,5 Z " fill="#191725" transform="translate(194,18)"/>
<path d="M0,0 L5,1 L6,6 L4,8 L-1,7 L-2,2 Z " fill="#DFDBE1" transform="translate(140,155)"/>
<path d="M0,0 L6,1 L8,3 L7,6 L-2,5 L-4,4 L-4,2 L-7,1 L0,2 Z " fill="#1E1622" transform="translate(255,92)"/>
<path d="M0,0 L2,1 L-3,2 L-4,7 L-3,9 L-9,8 L-10,6 L-15,9 L-20,9 L-16,7 L-11,4 Z " fill="#272743" transform="translate(165,13)"/>
<path d="M0,0 L1,2 L-2,17 L-3,27 L-4,27 L-4,8 Z " fill="#AFACB5" transform="translate(70,293)"/>
<path d="M0,0 L6,2 L8,3 L21,3 L30,0 L29,2 L22,5 L10,5 L10,7 L5,6 L5,3 L0,2 Z " fill="#F3D6B4" transform="translate(231,187)"/>
<path d="M0,0 L4,1 L10,8 L10,12 L6,10 L5,7 L3,7 L0,2 Z " fill="#9B9AA2" transform="translate(313,115)"/>
<path d="M0,0 L2,0 L0,4 L-8,11 L-11,13 L-11,11 L-14,10 Z " fill="#332F3C" transform="translate(100,90)"/>
<path d="M0,0 L3,3 L2,11 L-1,17 L-2,13 L-1,7 L-2,7 L-2,2 Z " fill="#1B1B2E" transform="translate(67,281)"/>
<path d="M0,0 L2,0 L2,2 L10,3 L9,9 L8,9 L7,17 L6,17 L6,5 L2,6 L-1,5 L-1,3 L-3,1 Z " fill="#2E2A3B" transform="translate(159,263)"/>
<path d="M0,0 L2,1 L-4,3 L-4,5 L-6,5 L-5,9 L-12,8 L-16,5 L-6,2 Z " fill="#433A4B" transform="translate(271,252)"/>
<path d="M0,0 L1,0 L1,11 L-3,17 L-8,21 L-19,21 L-19,20 L-9,20 L-8,17 L-3,13 L-2,10 L0,10 Z " fill="#412720" transform="translate(160,155)"/>
<path d="M0,0 L2,2 L3,14 L0,25 L-1,25 Z " fill="#241A22" transform="translate(319,198)"/>
<path d="M0,0 L9,0 L14,2 L14,4 L10,7 L5,4 L4,2 L0,1 Z " fill="#D88B81" transform="translate(183,188)"/>
<path d="M0,0 L7,0 L7,2 L1,2 L1,4 L8,3 L9,5 L3,5 L3,7 L0,8 L-3,4 L0,4 L0,2 L-3,1 Z " fill="#221B29" transform="translate(209,248)"/>
<path d="M0,0 L1,0 L1,14 L4,15 L3,19 L0,20 L-1,24 L-1,12 Z " fill="#A36F4E" transform="translate(310,181)"/>
<path d="M0,0 L7,1 L14,4 L19,5 L19,7 L3,5 L-1,3 L3,2 Z " fill="#3A3747" transform="translate(215,59)"/>
<path d="M0,0 L3,1 L4,8 L7,8 L8,10 L11,11 L11,9 L16,8 L11,13 L6,13 L3,9 Z " fill="#A17A82" transform="translate(173,284)"/>
<path d="M0,0 L2,0 L3,8 L1,12 L-1,12 L-1,9 L-3,9 L-2,4 Z " fill="#22181F" transform="translate(183,237)"/>
<path d="M0,0 L5,0 L6,1 L6,6 L5,7 L0,7 L-1,6 L-1,1 Z " fill="#E2E1E5" transform="translate(239,156)"/>
<path d="M0,0 L1,0 L2,6 L4,6 L4,12 L-1,20 L-2,18 L-1,14 Z " fill="#936F60" transform="translate(311,214)"/>
<path d="M0,0 L2,0 L1,4 L-1,13 L-2,13 L-2,8 L-8,7 L-8,2 L-7,6 L-5,6 L-5,4 L-3,4 L-3,2 Z " fill="#4B2F2C" transform="translate(76,188)"/>
<path d="M0,0 L1,0 L2,9 L-2,17 L-9,18 L-4,13 L-1,9 Z " fill="#A67B60" transform="translate(261,158)"/>
<path d="M0,0 L5,1 L21,6 L22,8 L12,6 L0,3 Z " fill="#906858" transform="translate(236,91)"/>
<path d="M0,0 L2,1 L-5,8 L-13,15 L-17,17 L-15,13 L-5,4 Z " fill="#8F8E98" transform="translate(129,39)"/>
<path d="M0,0 L2,1 L1,3 L1,6 L-2,6 L-1,10 L-3,11 L-3,9 L-7,10 L-7,8 L-9,7 L-1,1 Z " fill="#382E40" transform="translate(307,234)"/>
<path d="M0,0 L1,3 L-2,7 L-4,7 L-6,11 L-9,12 L-8,7 Z " fill="#8D6045" transform="translate(94,153)"/>
<path d="M0,0 L3,3 L4,8 L0,12 L-8,12 L-10,10 L-1,10 L-1,8 L1,8 Z " fill="#D09F71" transform="translate(162,124)"/>
<path d="M0,0 L4,2 L4,4 L6,4 L6,6 L8,7 L13,15 L13,17 L11,17 L1,3 Z " fill="#1C1C2C" transform="translate(290,62)"/>
<path d="M0,0 L1,0 L1,13 L3,13 L3,18 L-2,18 L-1,5 Z " fill="#282740" transform="translate(79,377)"/>
<path d="M0,0 L2,3 L1,7 Z M2,0 L6,3 L10,8 L10,10 L7,11 L6,9 L4,9 Z " fill="#2A2436" transform="translate(166,281)"/>
<path d="M0,0 L1,0 L1,10 L-1,12 L-7,12 L-6,7 L-8,6 L-5,6 L-5,9 L-2,7 Z " fill="#A8787D" transform="translate(207,270)"/>
<path d="M0,0 L10,3 L15,6 L26,7 L26,8 L13,8 L7,5 L2,3 Z " fill="#D2AA81" transform="translate(226,183)"/>
<path d="M0,0 L2,0 L0,4 L-8,13 L-10,12 L-5,4 Z M-11,13 Z " fill="#FDE9C9" transform="translate(178,173)"/>
<path d="M0,0 L2,1 L0,5 L3,4 L3,9 L-1,13 L-4,12 L-2,12 L-2,10 L0,10 L0,8 L-5,7 L-5,5 Z " fill="#BB8257" transform="translate(90,160)"/>
<path d="M0,0 L4,1 L1,4 L-8,7 L-12,5 Z M-9,7 Z " fill="#855F52" transform="translate(148,93)"/>
<path d="M0,0 L1,2 L3,2 L4,0 L7,4 L7,9 L2,8 L0,4 Z " fill="#1B1930" transform="translate(327,285)"/>
<path d="M0,0 L2,4 L7,4 L9,0 L9,5 L6,7 L1,8 L0,12 L-2,8 L-2,4 L0,4 Z " fill="#3A343F" transform="translate(237,158)"/>
<path d="M0,0 L2,0 L1,4 L-9,11 L-12,12 L-10,8 L-6,5 L-4,5 L-3,2 Z " fill="#2A1E25" transform="translate(85,154)"/>
<path d="M0,0 Z M-4,1 L3,2 L3,4 L5,5 L-2,7 L-6,6 Z " fill="#201E35" transform="translate(166,14)"/>
<path d="M0,0 L9,0 L9,2 L12,3 L10,7 L0,1 Z " fill="#502C2C" transform="translate(196,262)"/>
<path d="M0,0 L3,3 L5,11 L0,9 L-3,6 L-1,5 Z " fill="#675052" transform="translate(320,183)"/>
<path d="M0,0 L1,0 L2,6 L2,19 L0,16 L-2,9 L-1,5 Z " fill="#757381" transform="translate(345,173)"/>
<path d="M0,0 L6,1 L7,2 L7,7 L3,6 L-6,7 L-3,5 L1,4 Z " fill="#625F68" transform="translate(209,39)"/>
<path d="M0,0 L2,3 L5,21 L4,25 L4,22 L2,22 L1,17 Z " fill="#312E41" transform="translate(308,347)"/>
<path d="M0,0 L3,0 L4,3 L1,10 L-2,9 L-2,3 Z " fill="#BA6E6C" transform="translate(193,275)"/>
<path d="M0,0 L5,0 L6,4 L8,6 L0,5 L-3,3 L-3,1 Z " fill="#1B1628" transform="translate(105,249)"/>
<path d="M0,0 L7,2 L9,6 L8,8 L4,7 L0,2 Z " fill="#1F1D2B" transform="translate(308,104)"/>
<path d="M0,0 L4,1 L2,5 L-2,10 L-4,10 L-3,4 Z " fill="#151220" transform="translate(100,303)"/>
<path d="M0,0 L3,4 L5,15 L3,15 L-1,6 L-2,2 Z " fill="#9C99A4" transform="translate(331,297)"/>
<path d="M0,0 L2,0 L1,5 L-1,8 L-7,9 L-7,11 L-11,10 L-9,8 L-2,4 Z " fill="#BE898E" transform="translate(191,284)"/>
<path d="M0,0 L2,0 L3,5 L3,12 L2,10 L-1,11 L-1,1 Z " fill="#171527" transform="translate(149,278)"/>
<path d="M0,0 L2,1 L1,3 L3,3 L3,5 L5,6 L1,7 L-7,6 L-3,2 Z " fill="#372F40" transform="translate(227,268)"/>
<path d="M0,0 L18,0 L26,3 L26,4 L15,3 L13,2 L0,1 Z " fill="#F3D4AB" transform="translate(188,169)"/>
<path d="M0,0 L1,0 L1,9 L-2,18 L-3,18 L-3,10 Z " fill="#9D9BA6" transform="translate(51,167)"/>
<path d="M0,0 L4,1 L6,11 L2,9 L0,4 Z " fill="#9B9AA1" transform="translate(330,140)"/>
<path d="M0,0 L11,0 L12,2 L4,2 L-1,6 L-3,10 L-3,4 L0,3 Z " fill="#F8DAB3" transform="translate(144,117)"/>
<path d="M0,0 L1,3 L0,8 L-4,13 L-7,14 L-5,8 L-2,3 Z " fill="#866052" transform="translate(115,110)"/>
<path d="M0,0 L1,3 L-6,15 L-8,15 L-6,9 Z " fill="#1D1C2B" transform="translate(80,95)"/>
<path d="M0,0 L4,0 L5,7 L4,4 L-3,7 L-3,2 Z " fill="#CC8881" transform="translate(205,187)"/>
<path d="M0,0 L2,2 L4,10 L1,10 L-3,5 L-5,4 L-5,2 L0,3 Z " fill="#A46D4A" transform="translate(305,166)"/>
<path d="M0,0 L1,0 L3,15 L1,15 L-2,8 L-1,1 Z " fill="#CD9B77" transform="translate(130,156)"/>
<path d="M0,0 L4,2 L4,4 L6,4 L8,9 L2,9 L0,2 Z " fill="#AE764F" transform="translate(297,160)"/>
<path d="M0,0 L1,3 L-2,7 L-4,12 L-5,8 L-8,8 L-3,2 Z " fill="#98979E" transform="translate(79,116)"/>
<path d="M0,0 L1,4 L-5,10 L-9,9 L-7,4 L-6,7 Z " fill="#1A172B" transform="translate(195,309)"/>
<path d="M0,0 L4,0 L3,4 L-3,8 L-6,7 Z " fill="#A8A6B1" transform="translate(124,288)"/>
<path d="M0,0 L1,0 L1,9 L3,10 L-7,10 L-6,8 L-3,7 Z " fill="#513038" transform="translate(198,243)"/>
<path d="M0,0 L12,0 L13,1 L12,9 L9,9 L10,8 L10,1 L0,2 Z " fill="#ECC4B7" transform="translate(199,186)"/>
<path d="M0,0 L5,2 L5,19 L3,19 L2,5 Z " fill="#945E41" transform="translate(308,176)"/>
<path d="M0,0 L3,1 L9,11 L9,14 L7,14 L0,2 Z " fill="#181728" transform="translate(326,127)"/>
<path d="M0,0 L2,1 L-3,6 L-12,14 L-12,11 Z " fill="#C98C5E" transform="translate(124,118)"/>
<path d="M0,0 L8,0 L9,3 L-6,3 L-3,1 Z " fill="#232232" transform="translate(187,58)"/>
<path d="M0,0 L3,0 L2,4 L-4,9 L-5,5 Z " fill="#181724" transform="translate(86,101)"/>
<path d="M0,0 L4,1 L-10,8 L-13,7 Z " fill="#251418" transform="translate(137,95)"/>
<path d="M0,0 L2,2 L2,7 L-3,8 L-3,2 Z " fill="#171525" transform="translate(185,347)"/>
<path d="M0,0 L4,1 L6,5 L-1,6 L-2,1 Z " fill="#4D4D5B" transform="translate(311,269)"/>
<path d="M0,0 L1,0 L2,12 L5,12 L5,14 L2,15 L-2,13 Z " fill="#A39298" transform="translate(224,254)"/>
<path d="M0,0 L4,1 L0,4 L-2,4 L-2,7 L-7,6 L-7,4 L-5,4 L-5,2 Z " fill="#262034" transform="translate(272,253)"/>
<path d="M0,0 L2,0 L1,5 L-5,7 L-5,5 L-7,4 Z " fill="#382E3E" transform="translate(296,242)"/>
<path d="M0,0 L1,3 L5,3 L5,1 L7,2 L3,7 L1,7 L1,12 L0,12 L-2,4 Z " fill="#3B3A41" transform="translate(185,221)"/>
<path d="M0,0 L2,0 L2,2 L8,2 L8,3 L-1,4 L-1,6 L-5,6 L-4,2 Z " fill="#C1C1C5" transform="translate(191,218)"/>
<path d="M0,0 L7,0 L7,1 L1,1 L1,5 L5,4 L8,6 L5,6 L4,11 L3,7 L-1,7 Z " fill="#454144" transform="translate(226,203)"/>
<path d="M0,0 L1,0 L1,7 L-1,6 L-3,18 L-4,18 L-3,5 Z " fill="#333245" transform="translate(329,200)"/>
<path d="M0,0 L2,0 L2,5 L0,7 L-2,20 L-3,20 L-3,10 L-1,1 Z " fill="#AF8365" transform="translate(134,145)"/>
<path d="M0,0 L4,2 L8,7 L5,7 L6,11 L3,8 L0,2 Z " fill="#8F8D96" transform="translate(308,108)"/>
<path d="M0,0 L5,0 L4,3 L-3,4 L-4,2 L-4,5 L-8,3 L-5,1 Z " fill="#2A2435" transform="translate(255,258)"/>
<path d="M0,0 L6,0 L4,1 L4,3 L1,3 L0,5 L-7,3 L-6,1 L0,2 Z " fill="#2A2537" transform="translate(134,258)"/>
<path d="M0,0 L1,2 L-1,8 L-2,9 L-13,10 L-11,8 L-4,8 L-2,3 Z " fill="#4D3D4B" transform="translate(174,253)"/>
<path d="M0,0 L1,4 L2,7 L-1,13 L-4,13 L-1,2 Z " fill="#D3AEAB" transform="translate(192,229)"/>
<path d="M0,0 L2,4 L-2,12 L-6,11 L-2,5 Z " fill="#3D2A33" transform="translate(317,219)"/>
<path d="M0,0 L3,0 L2,5 L-5,6 L-2,1 Z " fill="#915250" transform="translate(206,191)"/>
<path d="M0,0 L4,1 L4,3 L9,4 L10,6 L4,6 L0,3 Z " fill="#9B5657" transform="translate(184,192)"/>
<path d="M0,0 L6,5 L17,6 L17,7 L4,7 L1,5 Z " fill="#A47A5F" transform="translate(234,170)"/>
<path d="M0,0 L1,3 L-5,14 L-7,14 L-7,10 L-4,7 Z " fill="#181828" transform="translate(62,134)"/>
<path d="M0,0 L7,0 L12,4 L11,6 L6,4 L-1,5 L-1,3 L5,3 L5,1 L0,1 Z " fill="#483E46" transform="translate(211,247)"/>
<path d="M0,0 L9,2 L9,5 L-2,3 Z " fill="#231F26" transform="translate(196,212)"/>
<path d="M0,0 L2,3 L3,9 L2,11 L1,15 L-1,9 Z " fill="#C08F6F" transform="translate(77,191)"/>
<path d="M0,0 L19,0 L22,2 L21,4 L15,2 L0,1 Z " fill="#D4A77C" transform="translate(272,182)"/>
<path d="M0,0 L9,2 L8,4 L-1,4 L-1,6 L-5,6 L-4,3 Z " fill="#4E4B5B" transform="translate(93,296)"/>
<path d="M0,0 L1,4 L-4,10 L-7,11 L-7,8 L-5,8 L-3,4 Z " fill="#353243" transform="translate(318,240)"/>
<path d="M0,0 L2,0 L6,7 L4,7 L3,11 L0,6 Z " fill="#525062" transform="translate(69,225)"/>
<path d="M0,0 L13,3 L13,6 L5,5 L3,5 L0,2 Z " fill="#B4ACAB" transform="translate(168,218)"/>
<path d="M0,0 L1,3 L-4,7 L-16,7 L-16,6 L-4,4 Z " fill="#25100F" transform="translate(257,168)"/>
<path d="M0,0 L1,2 L11,2 L9,6 L4,10 L4,7 L6,7 L6,5 L8,5 L8,3 L0,3 Z " fill="#3D2926" transform="translate(74,165)"/>
<path d="M0,0 L1,4 L1,7 L-5,12 L-4,7 Z " fill="#848390" transform="translate(80,98)"/>
<path d="M0,0 L3,1 L-2,6 L-5,6 L-8,5 L-3,1 Z " fill="#1B1828" transform="translate(129,95)"/>
<path d="M0,0 L3,0 L1,5 L0,11 L-2,11 L-2,2 Z " fill="#232334" transform="translate(198,47)"/>
<path d="M0,0 L1,4 L-5,13 L-6,10 Z " fill="#1F1D30" transform="translate(76,270)"/>
<path d="M0,0 L1,2 L3,2 L3,5 L5,5 L4,8 L1,8 L-1,7 L-2,4 Z " fill="#3F333D" transform="translate(179,244)"/>
<path d="M0,0 L4,1 L7,3 L7,5 L-2,4 L-2,1 Z " fill="#E8E6E9" transform="translate(195,216)"/>
<path d="M0,0 L5,1 L8,4 L3,5 L-4,3 Z " fill="#3F3C44" transform="translate(190,212)"/>
<path d="M0,0 L5,1 L5,10 L4,10 L3,5 L1,8 L0,6 Z " fill="#333147" transform="translate(63,206)"/>
<path d="M0,0 L3,0 L3,9 L-1,10 Z " fill="#1E1013" transform="translate(195,201)"/>
<path d="M0,0 L2,1 L-3,4 L-6,6 L-10,5 L-6,1 Z " fill="#F7DABA" transform="translate(102,186)"/>
<path d="M0,0 L2,4 L1,7 L-1,7 L-1,9 L-3,9 L-3,3 Z " fill="#806762" transform="translate(72,185)"/>
<path d="M0,0 L2,0 L6,7 L5,9 L2,7 L1,9 Z " fill="#353240" transform="translate(294,305)"/>
<path d="M0,0 L4,1 L2,1 L3,4 L-2,6 L-2,3 L-4,2 Z M-3,6 L0,8 L-3,8 Z " fill="#2D2635" transform="translate(243,261)"/>
<path d="M0,0 L9,0 L6,1 L5,6 L0,2 Z " fill="#412829" transform="translate(309,168)"/>
<path d="M0,0 L4,0 L8,4 L12,6 L12,8 L7,7 L0,1 Z " fill="#342329" transform="translate(305,155)"/>
<path d="M0,0 L4,1 L1,3 L1,5 L-9,4 L-5,2 Z " fill="#302C40" transform="translate(155,84)"/>
<path d="M0,0 L2,1 L-4,7 L-4,15 L-6,11 L-6,5 Z " fill="#30304B" transform="translate(321,380)"/>
<path d="M0,0 L2,3 L2,6 L0,6 L0,10 L-2,10 L-2,1 Z " fill="#1E1C2B" transform="translate(228,302)"/>
<path d="M0,0 L7,1 L10,5 L10,7 L7,7 L6,4 L0,1 Z " fill="#E8B5B0" transform="translate(196,265)"/>
<path d="M0,0 L2,0 L2,2 L7,3 L8,5 L4,6 L1,4 L-2,4 L-2,2 L0,2 Z " fill="#262034" transform="translate(118,253)"/>
<path d="M0,0 L3,1 L0,6 L-6,8 Z " fill="#6C6B79" transform="translate(318,232)"/>
<path d="M0,0 L2,3 L2,6 L-2,7 L-4,6 L-2,1 Z M-3,7 Z " fill="#1E1727" transform="translate(313,230)"/>
<path d="M0,0 L3,1 L2,6 L0,8 L-3,7 L-1,5 L-2,3 Z " fill="#171418" transform="translate(226,209)"/>
<path d="M0,0 L6,0 L5,3 L3,3 L3,5 L-1,6 Z " fill="#916141" transform="translate(85,167)"/>
<path d="M0,0 L4,2 L0,7 L-5,8 Z " fill="#B18566" transform="translate(160,166)"/>
<path d="M0,0 L2,4 L2,11 L-1,10 L-2,5 Z " fill="#8E8B96" transform="translate(341,160)"/>
<path d="M0,0 L7,6 L9,7 L9,9 L5,8 L0,3 Z " fill="#151225" transform="translate(173,297)"/>
<path d="M0,0 L2,0 L2,6 L-3,5 L-3,2 Z " fill="#4D4A5F" transform="translate(190,299)"/>
<path d="M0,0 L2,1 L1,9 L-3,11 L-1,6 L-4,5 L0,4 Z " fill="#C68B88" transform="translate(205,268)"/>
<path d="M0,0 L9,2 L13,4 L9,5 L0,2 Z " fill="#392E3D" transform="translate(120,253)"/>
<path d="M0,0 L5,1 L8,3 L7,6 L1,3 Z " fill="#4F4C59" transform="translate(84,251)"/>
<path d="M0,0 L2,1 L2,4 L0,5 L2,7 L-4,8 L-2,3 L-3,1 Z " fill="#252032" transform="translate(287,247)"/>
<path d="M0,0 L2,2 L4,2 L3,5 L-2,7 L-3,5 L-2,1 Z " fill="#231E30" transform="translate(300,241)"/>
<path d="M0,0 L12,2 L13,4 L4,4 L4,2 L0,2 Z " fill="#FBE2C1" transform="translate(131,188)"/>
<path d="M0,0 L2,2 L5,7 L8,10 L1,9 Z " fill="#AA8169" transform="translate(132,165)"/>
<path d="M0,0 L5,1 L6,6 L4,3 L1,3 L-1,7 L-2,2 Z " fill="#AAA5AF" transform="translate(140,155)"/>
<path d="M0,0 L3,2 L3,11 L1,11 Z " fill="#CB9A75" transform="translate(261,152)"/>
<path d="M0,0 L9,0 L9,1 L1,1 L1,4 L-1,5 L-2,10 L-3,10 L-2,1 Z " fill="#E0B68A" transform="translate(143,116)"/>
<path d="M0,0 L15,0 L11,2 L6,3 L0,1 Z " fill="#7F5B50" transform="translate(204,86)"/>
<path d="M0,0 L2,1 L-1,5 L-6,10 L-7,7 Z " fill="#938F9D" transform="translate(108,301)"/>
<path d="M0,0 L2,0 L1,3 L-7,9 L-9,8 L-5,3 Z " fill="#B5B3BC" transform="translate(115,297)"/>
<path d="M0,0 L4,1 L4,3 L-3,5 L-3,3 L-5,2 Z " fill="#242031" transform="translate(224,273)"/>
<path d="M0,0 L3,0 L9,8 L6,8 L0,1 Z " fill="#615E6D" transform="translate(75,239)"/>
<path d="M0,0 L1,4 L-1,6 L-2,12 L-4,9 L-4,5 L-2,5 L-3,2 Z " fill="#141017" transform="translate(207,225)"/>
<path d="M0,0 L1,0 L0,9 L-2,7 L-4,9 L-3,3 Z " fill="#8F8E96" transform="translate(53,163)"/>
<path d="M0,0 L2,4 L0,5 L-6,5 L-5,2 Z " fill="#755F5B" transform="translate(81,162)"/>
<path d="M0,0 L1,0 L1,5 L-3,10 L-4,7 L-1,1 Z " fill="#9B97A2" transform="translate(57,152)"/>
<path d="M0,0 L3,3 L4,14 L2,12 L0,7 Z " fill="#3C2A30" transform="translate(292,129)"/>
<path d="M0,0 L4,1 L5,2 L5,8 L3,8 L0,2 Z " fill="#AA9BA8" transform="translate(213,253)"/>
<path d="M0,0 L4,0 L5,2 L5,14 L4,14 L3,6 L1,4 L3,4 L3,1 Z " fill="#C2A0A4" transform="translate(194,227)"/>
<path d="M0,0 L6,0 L1,4 L-3,9 L-5,8 Z " fill="#C0BAB9" transform="translate(211,222)"/>
<path d="M0,0 L1,0 L2,12 L3,15 L1,19 L0,15 Z " fill="#694D49" transform="translate(74,201)"/>
<path d="M0,0 L2,1 L-1,2 L-2,5 L-6,5 L-6,3 L-9,2 Z " fill="#D89E8F" transform="translate(203,187)"/>
<path d="M0,0 L2,1 L6,10 L6,12 L3,12 L0,3 Z " fill="#1D1B2C" transform="translate(338,148)"/>
<path d="M0,0 L5,1 L7,4 L4,5 L0,4 Z " fill="#2B2A37" transform="translate(306,101)"/>
<path d="M0,0 L2,1 L0,4 L-8,5 L-5,2 Z " fill="#7A594F" transform="translate(134,99)"/>
<path d="M0,0 L4,2 L2,2 L2,4 L5,5 L-3,4 L-3,1 Z " fill="#151429" transform="translate(218,12)"/>
<path d="M0,0 L3,1 L3,7 L0,10 Z " fill="#341E2C" transform="translate(208,272)"/>
<path d="M0,0 L8,1 L6,2 L6,4 L9,5 L3,4 Z " fill="#1F1B2C" transform="translate(152,264)"/>
<path d="M0,0 L0,3 L-2,11 L-6,12 L-4,8 L-1,1 Z " fill="#C4A5A4" transform="translate(187,243)"/>
<path d="M0,0 L2,2 L5,2 L10,5 L9,7 L0,4 Z " fill="#150F1D" transform="translate(199,245)"/>
<path d="M0,0 L1,0 L0,9 L-2,7 L-4,8 L-2,1 Z " fill="#4E4D5D" transform="translate(326,219)"/>
<path d="M0,0 L7,0 L8,1 L8,6 L4,2 L0,1 Z " fill="#D1807C" transform="translate(183,188)"/>
<path d="M0,0 Z M-5,1 L0,1 L-2,3 L-7,5 L-12,5 L-9,4 L-9,2 Z " fill="#FAE2BF" transform="translate(165,187)"/>
<path d="M0,0 L1,0 L2,9 L0,13 L-2,12 Z " fill="#AD8366" transform="translate(261,158)"/>
<path d="M0,0 L6,0 L1,5 L-1,6 Z " fill="#D69968" transform="translate(207,101)"/>
<path d="M0,0 L4,2 L4,6 L-1,7 L-3,5 L1,5 L1,3 L-1,2 Z " fill="#322935" transform="translate(271,98)"/>
<path d="M0,0 L6,0 L10,3 L10,5 L4,3 Z " fill="#362023" transform="translate(258,98)"/>
<path d="M0,0 L5,5 L5,7 L3,7 L2,9 L-1,4 L1,4 Z " fill="#8E8D97" transform="translate(291,65)"/>
<path d="M0,0 L9,1 L12,5 L5,5 L8,4 L8,2 L0,1 Z " fill="#4F4C59" transform="translate(226,62)"/>
<path d="M0,0 L1,0 L1,13 L-1,13 L-2,7 L-1,7 Z " fill="#33313E" transform="translate(198,22)"/>
<path d="M0,0 L1,2 L9,0 L8,4 L5,5 L0,3 Z " fill="#432C3A" transform="translate(199,280)"/>
<path d="M0,0 L2,1 L1,2 L4,4 L-3,5 L-6,3 L-1,1 Z " fill="#A26362" transform="translate(201,194)"/>
<path d="M0,0 L2,0 L0,4 L-4,6 L-7,6 Z M-2,4 Z M-3,5 Z M-4,6 Z " fill="#F5DBB7" transform="translate(178,173)"/>
<path d="M0,0 L2,0 L3,6 L2,14 L1,14 Z " fill="#B08569" transform="translate(160,150)"/>
<path d="M0,0 L3,0 L6,6 L5,10 L3,4 L1,4 Z " fill="#342226" transform="translate(286,123)"/>
<path d="M0,0 L3,1 L-1,8 L-3,4 Z " fill="#39262A" transform="translate(113,109)"/>
<path d="M0,0 L2,1 L-2,5 L-8,6 L-4,2 Z " fill="#835E52" transform="translate(124,104)"/>
<path d="M0,0 L1,0 L1,10 L-1,9 L-2,1 Z " fill="#716F7E" transform="translate(67,321)"/>
<path d="M0,0 L1,0 L3,6 L3,14 L2,14 L0,8 Z " fill="#484657" transform="translate(295,314)"/>
<path d="M0,0 L6,2 L3,5 L-1,4 L-3,5 L-1,1 Z " fill="#282739" transform="translate(101,300)"/>
<path d="M0,0 L8,0 L3,6 L2,4 L3,1 Z " fill="#17172D" transform="translate(100,296)"/>
<path d="M0,0 L2,1 L2,7 L-2,6 L-4,4 L0,4 Z " fill="#9B828B" transform="translate(209,259)"/>
<path d="M0,0 L4,1 L2,3 L-6,5 L-5,2 L0,2 Z " fill="#9C8B93" transform="translate(280,247)"/>
<path d="M0,0 L8,0 L4,3 L-3,2 Z M0,3 Z " fill="#F5DAB9" transform="translate(264,185)"/>
<path d="M0,0 L1,3 L-2,7 L-4,7 L-5,9 L-4,5 L-2,1 Z " fill="#986443" transform="translate(94,153)"/>
<path d="M0,0 L3,1 L4,6 L0,5 L-1,1 Z " fill="#9A9AA2" transform="translate(288,63)"/>
<path d="M0,0 L5,1 L7,4 L2,4 L-1,1 Z " fill="#151529" transform="translate(174,12)"/>
<path d="M0,0 L3,0 L4,7 L1,6 Z " fill="#A2A0AA" transform="translate(327,293)"/>
<path d="M0,0 L4,5 L4,7 L1,8 L-1,2 Z " fill="#3E2634" transform="translate(172,284)"/>
<path d="M0,0 L1,4 L-2,10 L-3,6 L-1,1 Z " fill="#362330" transform="translate(176,256)"/>
<path d="M0,0 L5,4 L6,7 L1,5 L-1,2 Z " fill="#3D394C" transform="translate(77,243)"/>
<path d="M0,0 L1,2 L-2,7 L-5,10 L-7,9 Z " fill="#494657" transform="translate(327,233)"/>
<path d="M0,0 L4,0 L4,3 L2,3 L0,7 L-1,5 Z " fill="#E5C8C9" transform="translate(193,228)"/>
<path d="M0,0 L1,3 L-3,10 L-4,8 L-2,1 Z " fill="#7C605F" transform="translate(313,224)"/>
<path d="M0,0 L6,0 L4,4 L0,4 Z " fill="#1B171B" transform="translate(227,204)"/>
<path d="M0,0 L3,2 L-7,7 L-6,4 Z " fill="#352023" transform="translate(123,102)"/>
<path d="M0,0 L7,1 L12,3 L10,4 L2,2 Z " fill="#79574E" transform="translate(246,95)"/>
<path d="M0,0 L2,1 L1,4 L-5,6 L-2,1 Z " fill="#21213C" transform="translate(155,18)"/>
<path d="M0,0 L3,3 L4,5 L4,11 L2,7 L0,4 Z " fill="#504D5E" transform="translate(300,314)"/>
<path d="M0,0 L4,1 L2,5 L-1,5 Z " fill="#1E1B2B" transform="translate(100,303)"/>
<path d="M0,0 L2,0 L1,5 L-2,8 L-3,5 Z " fill="#AC7B82" transform="translate(191,284)"/>
<path d="M0,0 L2,0 L0,5 L-1,7 L-5,6 L-2,6 L-3,3 L0,2 Z " fill="#AF9AA1" transform="translate(171,254)"/>
<path d="M0,0 L2,1 L2,3 L5,4 L5,6 L0,5 Z " fill="#C3BCC1" transform="translate(204,243)"/>
<path d="M0,0 L4,2 L2,3 L3,7 L0,6 Z M-1,6 Z " fill="#6D4233" transform="translate(313,186)"/>
<path d="M0,0 L1,2 L3,2 L1,9 L-1,6 Z " fill="#343141" transform="translate(52,152)"/>
<path d="M0,0 L4,1 L-3,6 L-2,1 Z " fill="#9C6E58" transform="translate(118,109)"/>
<path d="M0,0 L6,0 L4,3 L-1,4 Z " fill="#A47158" transform="translate(152,93)"/>
<path d="M0,0 L4,1 L0,2 Z M-3,2 L2,3 L1,5 L-4,4 Z " fill="#272134" transform="translate(159,83)"/>
<path d="M0,0 L5,2 L7,6 L2,4 L0,3 Z " fill="#302E41" transform="translate(252,29)"/>
<path d="M0,0 L5,3 L7,7 L2,4 Z " fill="#161426" transform="translate(160,309)"/>
<path d="M0,0 L3,4 L1,8 L-2,4 Z " fill="#8F8C97" transform="translate(331,297)"/>
<path d="M0,0 L2,1 L-1,5 L-6,5 L-2,1 Z " fill="#74717F" transform="translate(228,275)"/>
<path d="M0,0 L1,2 L6,0 L6,3 L2,5 L0,4 Z " fill="#3B3548" transform="translate(214,274)"/>
<path d="M0,0 L1,3 L-2,7 L-4,6 L-2,1 Z " fill="#E8C8C7" transform="translate(181,256)"/>
<path d="M0,0 L10,0 L9,3 L0,1 Z " fill="#DEADAB" transform="translate(192,254)"/>
<path d="M0,0 L5,5 L5,8 L0,3 Z " fill="#201B20" transform="translate(163,209)"/>
<path d="M0,0 L5,0 L5,2 L0,4 L-3,1 Z " fill="#CD9A70" transform="translate(244,132)"/>
<path d="M0,0 L4,5 L3,8 L-1,3 Z " fill="#737284" transform="translate(316,103)"/>
<path d="M0,0 L8,2 L4,4 L0,2 Z " fill="#8A6454" transform="translate(254,98)"/>
<path d="M0,0 L7,1 L9,4 L3,3 L3,1 Z " fill="#28151B" transform="translate(248,93)"/>
<path d="M0,0 L3,1 L4,5 L1,6 Z " fill="#ABA9B0" transform="translate(306,90)"/>
<path d="M0,0 L2,1 L-5,8 L-6,5 Z " fill="#9695A0" transform="translate(129,39)"/>
<path d="M0,0 L2,4 L3,11 L0,7 L-1,3 Z " fill="#6D6A78" transform="translate(193,19)"/>
<path d="M0,0 L7,1 L6,4 L0,2 Z " fill="#303040" transform="translate(232,20)"/>
</svg>
