<?xml version="1.0" encoding="UTF-8"?>
<svg version="1.1" xmlns="http://www.w3.org/2000/svg" width="329" height="329">
<path d="M0,0 L329,0 L329,329 L0,329 Z " fill="#222035" transform="translate(0,0)"/>
<path d="M0,0 L27,0 L44,3 L67,10 L82,17 L91,21 L96,25 L100,32 L107,44 L113,56 L113,60 L115,60 L121,69 L132,79 L136,81 L135,84 L127,84 L134,92 L140,102 L142,106 L142,110 L138,108 L131,103 L136,116 L136,133 L132,142 L122,153 L108,162 L96,167 L77,173 L60,178 L42,186 L31,194 L29,194 L29,196 L21,203 L19,205 L15,204 L5,196 L-7,189 L-7,187 L-13,186 L-17,184 L-17,182 L-22,181 L-33,177 L-45,174 L-58,170 L-60,168 L-70,166 L-82,161 L-93,155 L-102,146 L-107,138 L-109,132 L-109,115 L-106,106 L-105,104 L-110,106 L-112,110 L-114,110 L-113,102 L-108,94 L-99,84 L-108,83 L-108,80 L-99,74 L-92,67 L-82,51 L-70,28 L-62,21 L-39,10 L-15,3 Z " fill="#D1925B" transform="translate(152,93)"/>
<path d="M0,0 L329,0 L329,329 L324,329 L319,311 L314,303 L314,301 L312,301 L309,295 L307,291 L305,291 L305,289 L303,289 L296,281 L291,277 L291,275 L289,275 L290,271 L298,265 L305,257 L311,247 L313,247 L314,243 L319,229 L322,213 L322,196 L319,175 L312,155 L304,139 L301,132 L298,123 L290,107 L283,96 L273,80 L262,66 L261,63 L259,63 L252,55 L237,43 L227,36 L222,33 L213,29 L203,25 L194,21 L179,18 L152,18 L139,20 L139,22 L131,24 L123,28 L114,31 L110,34 L105,36 L95,43 L93,43 L93,45 L89,48 L87,48 L86,51 L83,51 L83,53 L81,53 L79,57 L72,65 L70,65 L68,69 L60,79 L53,90 L45,103 L39,113 L35,121 L30,134 L26,144 L20,155 L18,162 L16,162 L12,178 L10,191 L10,212 L14,230 L18,241 L24,252 L30,260 L38,268 L44,273 L43,277 L35,285 L26,297 L20,307 L14,324 L13,329 L0,329 Z " fill="#403F60" transform="translate(0,0)"/>
<path d="M0,0 L17,0 L36,3 L54,7 L66,12 L75,16 L88,23 L89,26 L95,27 L100,32 L111,40 L115,44 L122,52 L131,64 L131,67 L133,67 L135,73 L137,73 L144,86 L147,90 L149,96 L152,102 L154,111 L155,121 L156,110 L157,110 L157,125 L154,144 L150,157 L148,162 L146,162 L145,166 L137,177 L128,186 L119,192 L109,196 L103,199 L81,205 L60,209 L56,209 L56,211 L45,214 L39,214 L39,211 L33,212 L33,217 L24,222 L23,225 L29,223 L34,223 L36,236 L36,249 L-6,249 L-7,243 L-7,233 L-9,233 L-9,226 L0,227 L-2,223 L-10,220 L-11,215 L-16,214 L-16,216 L-22,215 L-43,211 L-44,210 L-54,208 L-60,206 L-82,202 L-85,200 L-97,197 L-101,194 L-108,191 L-118,184 L-127,175 L-135,162 L-138,157 L-141,149 L-143,140 L-145,128 L-145,116 L-143,118 L-138,99 L-137,97 L-135,97 L-133,87 L-126,77 L-118,63 L-116,63 L-114,57 L-108,50 L-102,42 L-97,39 L-96,37 L-92,37 L-92,35 L-90,35 L-90,33 L-81,27 L-77,23 L-72,21 L-66,17 L-55,14 L-55,12 L-44,9 L-36,5 L-21,2 Z M-8,13 L-23,16 L-47,23 L-70,34 L-78,41 L-92,68 L-102,82 L-112,91 L-116,93 L-116,96 L-107,97 L-114,104 L-120,113 L-122,118 L-122,123 L-118,121 L-118,119 L-113,117 L-116,123 L-117,128 L-117,145 L-113,155 L-102,167 L-92,173 L-82,177 L-74,180 L-67,182 L-59,185 L-47,189 L-35,192 L-29,195 L-25,195 L-25,197 L-19,200 L-15,200 L-15,202 L0,211 L8,218 L12,217 L19,210 L21,209 L21,207 L25,205 L38,197 L55,190 L82,182 L92,178 L102,174 L115,165 L125,154 L128,146 L128,129 L123,116 L132,123 L134,123 L133,117 L127,106 L120,99 L119,97 L127,97 L128,94 L122,90 L112,81 L107,73 L105,73 L104,68 L96,52 L90,42 L87,37 L82,33 L74,30 L59,23 L36,16 L19,13 Z " fill="#5A5864" transform="translate(160,80)"/>
<path d="M0,0 L20,0 L28,3 L28,5 L32,6 L40,13 L44,17 L54,20 L66,20 L81,15 L85,13 L100,13 L108,16 L108,18 L113,20 L114,23 L118,24 L122,29 L122,36 L119,42 L114,47 L107,55 L93,64 L81,70 L76,72 L73,72 L73,74 L59,79 L33,85 L-4,85 L-21,83 L-25,81 L-32,80 L-37,78 L-47,76 L-54,73 L-67,69 L-75,65 L-82,62 L-84,60 L-91,57 L-96,53 L-100,48 L-100,46 L-102,46 L-103,43 L-103,36 L-99,27 L-94,21 L-89,17 L-79,13 L-64,13 L-49,18 L-44,20 L-30,20 L-21,15 L-10,5 L-3,1 Z " fill="#FAE7D0" transform="translate(155,178)"/>
<path d="M0,0 L11,0 L13,2 L16,13 L16,19 L18,19 L17,6 L16,0 L29,0 L41,2 L50,5 L61,10 L71,15 L85,24 L99,36 L112,50 L123,66 L129,75 L137,89 L140,94 L140,96 L137,95 L132,90 L123,82 L114,77 L114,79 L118,81 L136,99 L148,116 L154,127 L156,132 L160,140 L163,149 L166,162 L166,179 L164,177 L162,163 L159,154 L157,151 L155,145 L147,131 L147,129 L145,129 L143,123 L141,123 L136,114 L125,102 L123,97 L118,95 L106,86 L105,83 L99,82 L97,79 L85,73 L76,69 L60,63 L40,59 L27,57 L10,57 L-11,59 L-26,62 L-37,67 L-45,68 L-45,70 L-60,76 L-63,79 L-70,81 L-71,84 L-78,89 L-80,89 L-80,91 L-82,91 L-82,93 L-86,93 L-87,96 L-92,98 L-94,102 L-102,112 L-106,119 L-108,119 L-110,125 L-121,142 L-123,145 L-125,153 L-127,153 L-131,170 L-133,178 L-134,178 L-134,165 L-132,153 L-126,136 L-118,120 L-111,110 L-104,101 L-95,91 L-87,82 L-82,78 L-87,80 L-92,84 L-97,87 L-104,94 L-105,96 L-107,96 L-106,91 L-94,71 L-85,59 L-76,47 L-67,37 L-59,29 L-41,16 L-24,7 L-9,2 L-1,1 Z " fill="#7B787F" transform="translate(150,24)"/>
<path d="M0,0 L17,0 L31,1 L38,3 L46,4 L51,6 L58,7 L66,11 L75,14 L79,16 L80,18 L88,21 L90,22 L90,24 L95,26 L106,33 L111,37 L118,45 L127,54 L129,57 L129,60 L132,61 L141,78 L145,92 L145,95 L147,95 L150,109 L150,128 L146,144 L139,158 L129,169 L127,168 L134,157 L136,157 L137,153 L141,139 L141,134 L138,142 L135,149 L128,158 L117,167 L105,174 L95,178 L90,180 L81,182 L71,185 L61,188 L57,191 L47,194 L34,202 L24,210 L16,217 L11,217 L4,211 L-1,207 L-12,201 L-28,193 L-36,190 L-52,185 L-69,180 L-89,172 L-97,168 L-108,159 L-116,148 L-119,139 L-119,128 L-124,128 L-122,136 L-116,154 L-114,160 L-112,160 L-108,166 L-107,169 L-111,167 L-121,154 L-123,152 L-129,132 L-129,106 L-124,88 L-115,67 L-105,53 L-103,50 L-101,50 L-99,46 L-92,38 L-75,26 L-63,18 L-53,14 L-41,9 L-28,5 L-9,1 Z M-4,6 L-19,9 L-43,16 L-66,27 L-74,34 L-88,61 L-98,75 L-108,84 L-112,86 L-112,89 L-103,90 L-110,97 L-116,106 L-118,111 L-118,116 L-114,114 L-114,112 L-109,110 L-112,116 L-113,121 L-113,138 L-109,148 L-98,160 L-88,166 L-78,170 L-70,173 L-63,175 L-55,178 L-43,182 L-31,185 L-25,188 L-21,188 L-21,190 L-15,193 L-11,193 L-11,195 L4,204 L12,211 L16,210 L23,203 L25,202 L25,200 L29,198 L42,190 L59,183 L86,175 L96,171 L106,167 L119,158 L129,147 L132,139 L132,122 L127,109 L136,116 L138,116 L137,110 L131,99 L124,92 L123,90 L131,90 L132,87 L126,83 L116,74 L111,66 L109,66 L108,61 L100,45 L94,35 L91,30 L86,26 L78,23 L63,16 L40,9 L23,6 Z " fill="#262133" transform="translate(156,87)"/>
<path d="M0,0 L9,2 L19,6 L28,9 L53,15 L78,20 L94,25 L96,30 L98,45 L98,51 L-31,51 L-31,45 L-25,30 L-19,21 L-12,12 L-9,8 L-7,8 L-5,4 L-3,4 L-3,2 Z " fill="#79777C" transform="translate(50,278)"/>
<path d="M0,0 L6,1 L13,9 L18,13 L28,26 L33,34 L38,47 L38,52 L-78,52 L-80,34 L-80,24 L-72,21 L-44,14 L-35,13 L-26,10 L-5,3 Z " fill="#79767C" transform="translate(280,277)"/>
<path d="M0,0 L27,0 L44,3 L67,10 L82,17 L91,21 L96,25 L100,32 L107,44 L113,56 L113,60 L115,60 L121,69 L132,79 L136,81 L135,84 L127,84 L134,92 L140,102 L142,106 L142,110 L138,108 L131,103 L136,116 L136,133 L132,142 L127,148 L126,145 L127,142 L127,97 L126,93 L123,92 L122,89 L116,84 L116,82 L119,82 L119,80 L117,80 L114,75 L112,74 L112,72 L110,72 L106,62 L98,47 L96,46 L96,44 L94,44 L93,41 L80,31 L73,27 L62,23 L49,20 L31,16 L24,16 L23,23 L17,32 L13,33 L10,32 L4,21 L2,16 L-19,18 L-35,23 L-41,26 L-50,29 L-60,36 L-72,47 L-83,65 L-91,76 L-96,80 L-97,83 L-92,82 L-94,86 L-102,94 L-105,100 L-107,103 L-104,103 L-105,105 L-110,106 L-112,110 L-114,110 L-113,102 L-108,94 L-99,84 L-108,83 L-108,80 L-99,74 L-92,67 L-82,51 L-70,28 L-62,21 L-39,10 L-15,3 Z " fill="#9D674B" transform="translate(152,93)"/>
<path d="M0,0 L2,4 L3,26 L0,34 L-10,42 L-19,47 L-29,51 L-48,57 L-65,62 L-83,70 L-94,78 L-96,78 L-96,80 L-104,87 L-106,89 L-110,88 L-120,80 L-132,73 L-132,71 L-138,70 L-142,68 L-142,66 L-147,65 L-158,61 L-170,58 L-183,54 L-185,52 L-195,50 L-207,45 L-218,39 L-226,31 L-226,5 L-225,5 L-224,15 L-222,15 L-217,22 L-210,27 L-205,29 L-201,32 L-191,36 L-181,40 L-172,43 L-166,45 L-155,47 L-154,48 L-144,50 L-138,52 L-126,53 L-89,53 L-63,47 L-52,43 L-49,43 L-49,41 L-38,37 L-29,32 L-18,25 L-10,18 L-5,11 L-3,10 Z " fill="#C1A9A5" transform="translate(277,209)"/>
<path d="M0,0 L4,2 L15,10 L22,13 L36,18 L46,22 L67,28 L79,32 L95,40 L105,46 L110,49 L119,56 L120,57 L125,57 L135,48 L149,38 L158,33 L167,30 L176,26 L188,23 L192,21 L202,19 L210,15 L217,12 L229,5 L235,0 L238,0 L236,5 L234,8 L232,8 L232,10 L228,13 L226,13 L226,15 L216,21 L214,21 L214,23 L204,27 L195,31 L188,33 L171,38 L166,40 L161,40 L160,43 L157,44 L147,44 L146,51 L137,56 L136,59 L142,57 L147,57 L149,70 L149,83 L107,83 L106,77 L106,67 L104,67 L104,60 L113,61 L111,57 L103,54 L102,49 L94,47 L86,44 L86,42 L81,42 L72,39 L48,32 L39,30 L33,28 L33,26 L28,25 L18,20 L11,15 L10,13 L5,11 L1,6 L1,4 L-1,4 Z " fill="#77757C" transform="translate(47,246)"/>
<path d="M0,0 L2,3 L4,15 L6,22 L9,30 L17,44 L26,54 L34,60 L40,64 L47,67 L54,70 L61,72 L67,74 L85,77 L93,80 L101,81 L108,83 L123,86 L129,88 L129,86 L134,86 L135,87 L135,92 L141,93 L145,96 L145,99 L136,98 L136,105 L138,105 L139,121 L133,121 L130,100 L129,95 L119,93 L108,90 L83,85 L63,80 L52,76 L38,71 L32,72 L32,74 L28,78 L26,78 L24,82 L15,93 L9,105 L5,115 L4,121 L-2,121 L-1,112 L5,97 L12,86 L23,73 L28,68 L27,64 L15,53 L10,47 L6,41 L-1,26 L-4,15 L-3,12 L-1,8 Z " fill="#262439" transform="translate(15,208)"/>
<path d="M0,0 L3,3 L12,20 L14,24 L14,28 L16,28 L22,37 L33,47 L37,49 L36,52 L28,52 L35,60 L41,70 L43,74 L43,78 L39,76 L32,71 L37,84 L37,101 L33,110 L28,116 L27,113 L28,110 L28,65 L27,61 L24,60 L23,57 L17,52 L17,50 L20,50 L20,48 L18,48 L15,43 L13,42 L11,35 L12,31 L10,21 L7,16 L7,13 L3,13 Z " fill="#97644B" transform="translate(251,125)"/>
<path d="M0,0 L4,2 L15,10 L22,13 L36,18 L46,22 L67,28 L79,32 L95,40 L107,47 L106,51 L104,51 L104,49 L94,47 L86,44 L86,42 L81,42 L72,39 L48,32 L39,30 L33,28 L33,26 L28,25 L18,20 L11,15 L10,13 L5,11 L1,6 L1,4 L-1,4 Z " fill="#7B7981" transform="translate(47,246)"/>
<path d="M0,0 L11,0 L12,1 L12,7 L2,7 L-11,10 L-23,15 L-27,15 L-27,17 L-39,23 L-42,23 L-42,25 L-49,29 L-51,29 L-51,31 L-58,36 L-60,36 L-60,38 L-65,40 L-67,45 L-76,55 L-80,61 L-82,61 L-84,66 L-85,69 L-87,69 L-89,74 L-96,86 L-104,94 L-105,96 L-107,96 L-106,91 L-94,71 L-85,59 L-76,47 L-67,37 L-59,29 L-41,16 L-24,7 L-9,2 L-1,1 Z " fill="#A09FA7" transform="translate(150,24)"/>
<path d="M0,0 L13,0 L25,2 L34,5 L45,10 L55,15 L69,24 L83,36 L96,50 L107,66 L113,75 L121,89 L124,94 L124,96 L121,95 L116,90 L113,87 L110,80 L108,75 L105,74 L105,70 L103,70 L99,63 L93,54 L83,44 L83,42 L79,41 L73,34 L70,33 L65,28 L53,21 L41,15 L29,11 L13,7 L4,6 L0,3 Z " fill="#9E9BA4" transform="translate(166,24)"/>
<path d="M0,0 L3,0 L1,5 L-1,8 L-3,8 L-3,10 L-7,13 L-9,13 L-9,15 L-19,21 L-21,21 L-21,23 L-31,27 L-40,31 L-47,33 L-64,38 L-69,40 L-74,40 L-75,43 L-78,44 L-88,44 L-89,48 L-91,48 L-92,44 L-88,39 L-77,33 L-68,30 L-59,26 L-47,23 L-43,21 L-33,19 L-25,15 L-18,12 L-6,5 Z " fill="#7B7881" transform="translate(282,246)"/>
<path d="M0,0 L10,0 L18,7 L19,9 L19,21 L16,27 L10,31 L-2,31 L-9,23 L-10,20 L-10,10 L-6,4 Z " fill="#281E2E" transform="translate(111,153)"/>
<path d="M0,0 L3,0 L4,6 L-1,8 L-1,10 L-4,10 L-4,12 L1,13 L11,16 L17,19 L25,23 L27,28 L16,26 L7,23 L-32,23 L-45,25 L-44,22 L-42,21 L-41,18 L-38,18 L-38,16 L-29,11 L-25,11 L-25,9 L-15,7 L-6,4 L0,4 Z " fill="#5D5C67" transform="translate(181,49)"/>
<path d="M0,0 L1,3 L3,3 L3,8 L5,8 L5,11 L7,12 L-18,16 L-27,19 L-36,23 L-45,26 L-55,33 L-67,44 L-71,49 L-71,46 L-67,39 L-66,35 L-64,35 L-63,30 L-58,24 L-51,18 L-41,14 L-36,13 L-30,9 L-24,7 L-9,5 L-6,4 L-6,2 Z " fill="#A16647" transform="translate(147,96)"/>
<path d="M0,0 L8,0 L8,1 L41,1 L56,3 L62,5 L62,6 L54,6 L42,4 L15,4 L0,7 L-24,14 L-47,25 L-54,31 L-68,58 L-78,72 L-85,79 L-89,82 L-91,82 L-89,78 L-84,74 L-83,72 L-81,72 L-80,67 L-72,57 L-71,55 L-69,55 L-69,50 L-66,49 L-64,42 L-61,36 L-56,29 L-55,26 L-43,20 L-49,22 L-53,25 L-55,24 L-50,19 L-40,13 L-30,9 L-18,5 L-9,2 Z " fill="#2B1A21" transform="translate(137,90)"/>
<path d="M0,0 L7,0 L13,4 L17,9 L18,11 L18,23 L12,30 L9,32 L-1,32 L-7,28 L-8,24 L-5,24 L-4,20 L3,20 L2,13 L1,12 L-4,12 L-7,14 L-7,12 L-9,12 L-9,19 L-10,19 L-10,10 L-8,5 L-3,1 Z " fill="#281E2A" transform="translate(212,153)"/>
<path d="M0,0 L9,2 L19,6 L28,9 L53,15 L78,20 L94,25 L96,30 L98,45 L98,51 L96,47 L94,31 L89,29 L69,25 L41,20 L25,15 L21,14 L21,12 L15,12 L3,6 L-3,3 Z " fill="#575561" transform="translate(50,278)"/>
<path d="M0,0 L5,1 L22,18 L34,35 L40,46 L42,51 L46,59 L49,68 L52,81 L52,98 L50,96 L48,82 L45,73 L43,70 L41,64 L33,50 L33,48 L31,48 L29,42 L27,42 L22,33 L15,25 L15,22 L17,22 L18,20 L16,20 L14,16 L14,13 L12,13 L6,6 L4,5 L4,3 L0,1 Z " fill="#8E8C95" transform="translate(264,105)"/>
<path d="M0,0 L2,1 L0,4 L0,7 L2,7 L1,11 L-7,15 L-8,18 L-2,16 L3,16 L5,29 L5,42 L4,42 L2,22 L-12,24 L-23,25 L-36,25 L-37,24 L-38,26 L-40,26 L-40,19 L-31,20 L-33,16 L-41,13 L-41,8 L-40,10 L-38,10 L-36,6 L-25,15 L-24,16 L-19,16 L-9,7 Z " fill="#54515F" transform="translate(191,287)"/>
<path d="M0,0 L6,1 L7,3 L-8,10 L-11,10 L-11,12 L-25,16 L-33,19 L-42,20 L-48,22 L-59,23 L-77,29 L-79,29 L-79,34 L-80,34 L-80,24 L-72,21 L-44,14 L-35,13 L-26,10 L-5,3 Z " fill="#565561" transform="translate(280,277)"/>
<path d="M0,0 L3,0 L4,10 L7,11 L7,13 L13,14 L22,14 L30,9 L32,6 L36,6 L35,12 L33,12 L31,16 L26,20 L23,21 L12,21 L3,16 L3,14 L-2,19 L-6,21 L-20,21 L-28,16 L-31,11 L-31,7 L-27,8 L-22,13 L-20,14 L-9,14 L-3,11 L-1,9 Z " fill="#2D262B" transform="translate(164,209)"/>
<path d="M0,0 L9,0 L9,2 L11,2 L11,4 L15,5 L15,7 L17,7 L19,12 L22,13 L22,21 L21,22 L20,29 L15,37 L9,38 L-5,37 L-11,34 L-11,32 L-9,32 L-12,24 L-13,16 L-14,12 L-11,5 L-4,1 Z M0,4 L-6,7 L-9,10 L-10,14 L-10,23 L-9,23 L-9,16 L-7,16 L-6,18 L-4,16 L1,16 L2,17 L3,24 L-4,24 L-6,28 L-8,28 L-6,33 L-1,36 L9,36 L15,31 L18,27 L18,15 L14,9 L11,6 L7,4 Z " fill="#B6886C" transform="translate(212,149)"/>
<path d="M0,0 L27,0 L39,2 L39,3 L30,4 L30,8 L28,8 L27,14 L25,15 L2,15 L0,14 L0,11 L-2,11 L-3,4 L12,2 L-7,2 L-7,1 Z " fill="#875340" transform="translate(152,93)"/>
<path d="M0,0 L11,0 L12,1 L12,7 L2,7 L-11,10 L-23,15 L-27,15 L-27,17 L-39,23 L-42,23 L-42,25 L-47,27 L-48,21 L-39,15 L-24,7 L-9,2 L-1,1 Z " fill="#A19EA9" transform="translate(150,24)"/>
<path d="M0,0 L10,0 L18,7 L19,9 L19,21 L16,27 L10,31 L-2,31 L-9,23 L-10,20 L-10,10 L-6,4 Z M8,3 L8,5 L-3,6 L-5,10 L-2,10 L-4,12 L-4,17 L1,21 L0,23 L4,22 L4,24 L0,25 L0,29 L10,29 L15,25 L17,21 L17,13 L15,10 L11,5 L11,3 Z " fill="#371E1C" transform="translate(111,153)"/>
<path d="M0,0 L8,0 L13,3 L16,4 L18,7 L17,11 L10,5 L0,5 L-6,9 L-9,14 L-9,24 L-5,31 L-2,34 L10,34 L16,30 L18,25 L19,15 L21,18 L23,15 L23,20 L24,21 L24,28 L22,32 L17,36 L12,39 L1,38 L-7,34 L-11,33 L-11,16 L-13,16 L-12,9 L-10,9 L-8,5 L-4,2 L0,2 Z M9,39 Z " fill="#BE9170" transform="translate(111,149)"/>
<path d="M0,0 L9,0 L15,2 L15,10 L10,15 L4,17 L-6,17 L-9,14 L-8,7 L-3,2 Z " fill="#F9E3C1" transform="translate(208,125)"/>
<path d="M0,0 L10,0 L15,3 L19,8 L19,15 L17,18 L8,18 L0,14 L-3,10 L-3,3 Z " fill="#FBE3BF" transform="translate(113,125)"/>
<path d="M0,0 L9,0 L10,1 L20,1 L21,0 L26,0 L27,1 L27,8 L21,13 L16,14 L15,18 L15,14 L12,14 L12,23 L11,23 L10,14 L2,11 L0,8 Z " fill="#CF988E" transform="translate(152,195)"/>
<path d="M0,0 L24,0 L22,1 L21,8 L15,17 L11,18 L8,17 L2,6 Z " fill="#AD6F48" transform="translate(154,108)"/>
<path d="M0,0 L13,0 L25,2 L34,5 L42,9 L41,13 L32,12 L22,9 L13,7 L4,6 L0,3 Z " fill="#A8A6AD" transform="translate(166,24)"/>
<path d="M0,0 L3,3 L12,20 L14,24 L14,28 L16,28 L22,37 L33,47 L37,49 L36,52 L28,52 L27,54 L26,50 L25,43 L19,43 L15,41 L13,42 L11,35 L12,31 L10,21 L7,16 L7,13 L3,13 Z " fill="#8B5C48" transform="translate(251,125)"/>
<path d="M0,0 L5,4 L16,20 L22,29 L30,43 L33,48 L33,50 L30,49 L25,44 L22,41 L19,34 L17,29 L14,28 L14,24 L12,24 L8,17 L2,8 L-1,4 Z " fill="#9A98A1" transform="translate(257,70)"/>
<path d="M0,0 L1,3 L-4,9 L-5,12 L-7,13 L-8,16 L-10,16 L-11,20 L-15,25 L-26,44 L-29,51 L-32,52 L-31,43 L-22,26 L-12,13 L-1,1 Z " fill="#9A98A1" transform="translate(57,113)"/>
<path d="M0,0 L4,1 L4,4 L-2,9 L-9,18 L-14,24 L-19,32 L-24,42 L-26,43 L-25,35 L-21,26 L-16,18 L-9,9 L-6,5 L-4,5 L-2,1 Z " fill="#A09EA5" transform="translate(47,281)"/>
<path d="M0,0 L2,0 L3,17 L6,20 L-6,20 L-13,17 L-25,13 L-23,11 L-11,11 L-5,13 L-5,8 L-3,8 L-3,4 L-1,4 Z " fill="#2B2836" transform="translate(77,309)"/>
<path d="M0,0 L1,3 L0,5 L2,6 L1,8 L-1,8 L-3,13 L-4,16 L-6,16 L-8,21 L-15,33 L-23,41 L-24,43 L-26,43 L-25,38 L-13,18 L-4,6 Z " fill="#9A97A2" transform="translate(69,77)"/>
<path d="M0,0 L7,1 L13,3 L27,3 L35,7 L36,9 L42,12 L43,14 L41,14 L41,16 L46,18 L47,20 L43,19 L28,12 L13,6 L2,3 L2,1 Z " fill="#2A1C25" transform="translate(200,96)"/>
<path d="M0,0 L4,1 L12,8 L23,21 L26,26 L26,31 L22,29 L19,26 L16,21 L9,15 L9,13 L5,11 L5,9 L1,7 L-2,4 L-2,1 Z " fill="#9C9AA2" transform="translate(284,280)"/>
<path d="M0,0 L11,0 L8,1 L8,3 L13,4 L23,7 L29,10 L37,14 L39,19 L28,17 L32,15 L14,10 L7,9 L7,7 L0,7 Z " fill="#5F5C68" transform="translate(169,58)"/>
<path d="M0,0 L5,1 L22,18 L29,28 L30,32 L28,35 L28,33 L25,32 L22,29 L22,31 L19,30 L15,25 L15,22 L17,22 L18,20 L16,20 L14,16 L14,13 L12,13 L6,6 L4,5 L4,3 L0,1 Z " fill="#84818C" transform="translate(264,105)"/>
<path d="M0,0 L6,0 L15,3 L14,6 L8,4 L-7,4 L-17,8 L-26,11 L-38,11 L-48,8 L-53,2 L-49,3 L-48,5 L-44,4 L-43,7 L-33,9 L-32,7 L-24,7 L-14,3 L-9,1 Z " fill="#C29268" transform="translate(247,188)"/>
<path d="M0,0 L1,0 L1,9 L9,9 L24,12 L34,15 L35,17 L28,17 L16,14 L-18,13 L-17,11 L-14,10 L-3,9 Z " fill="#1D1C2A" transform="translate(167,57)"/>
<path d="M0,0 L2,1 L9,17 L9,20 L5,23 L2,22 L-5,13 L-6,10 L-10,6 L-6,6 L-1,11 L-2,6 L-3,1 L0,2 Z " fill="#27243D" transform="translate(291,109)"/>
<path d="M0,0 L2,4 L-2,10 L-4,18 L-6,18 L-10,35 L-12,43 L-13,43 L-13,30 L-11,18 L-5,1 L-3,5 L-1,5 Z " fill="#797680" transform="translate(29,159)"/>
<path d="M0,0 L8,0 L9,4 L0,3 L0,10 L2,10 L3,26 L-3,26 L-5,14 L-5,2 L-3,3 Z " fill="#1B1827" transform="translate(151,303)"/>
<path d="M0,0 L4,0 L3,6 L1,6 L-1,10 L-6,14 L-9,15 L-20,15 L-23,13 L-21,12 L-23,10 L-22,8 L-10,8 L-2,3 Z " fill="#292429" transform="translate(196,215)"/>
<path d="M0,0 L1,4 L1,13 L2,16 L4,17 L4,19 L6,19 L6,39 L2,35 L-2,25 L-2,8 Z " fill="#7C5C55" transform="translate(45,200)"/>
<path d="M0,0 L40,0 L55,2 L61,4 L61,5 L53,5 L41,3 L14,3 L3,5 L-4,5 L-3,2 Z " fill="#281319" transform="translate(138,91)"/>
<path d="M0,0 L3,0 L3,2 L6,2 L8,10 L9,28 L3,28 L1,9 Z " fill="#181524" transform="translate(193,301)"/>
<path d="M0,0 L2,1 L8,1 L4,3 L3,4 L3,9 L8,13 L8,14 L10,14 L10,16 L7,17 L8,19 L6,19 L6,23 L2,21 L-3,15 L-3,4 L-1,1 Z " fill="#1F1620" transform="translate(105,161)"/>
<path d="M0,0 L5,1 L15,6 L23,9 L26,11 L26,15 L30,15 L29,17 L12,12 L3,6 L3,3 Z " fill="#231A28" transform="translate(59,249)"/>
<path d="M0,0 L6,1 L14,2 L19,4 L26,5 L34,9 L31,11 L22,10 L14,8 L10,9 L8,7 L9,6 L-4,3 Z " fill="#332733" transform="translate(188,89)"/>
<path d="M0,0 L8,1 L10,3 L23,7 L24,11 L20,13 L3,8 L0,6 L5,5 L1,5 Z " fill="#302B3A" transform="translate(84,259)"/>
<path d="M0,0 L4,0 L4,2 L8,2 L8,4 L-17,10 L-23,10 L-21,9 L-20,6 L-16,4 L-12,2 Z " fill="#231F33" transform="translate(236,286)"/>
<path d="M0,0 L1,4 L5,4 L6,3 L11,3 L13,5 L13,12 L6,12 L5,18 L4,16 L1,17 L-1,13 L-1,1 Z " fill="#412820" transform="translate(202,161)"/>
<path d="M0,0 L7,1 L10,3 L19,4 L22,6 L22,11 L17,9 L17,7 L9,5 L-11,5 L-18,8 L-27,16 L-29,13 L-24,8 L-12,2 L-3,1 Z " fill="#C6996B" transform="translate(166,174)"/>
<path d="M0,0 L3,1 L-7,10 L-14,18 L-23,29 L-25,27 L-21,21 L-24,20 L-19,15 L-11,7 L-4,3 Z " fill="#1B1B23" transform="translate(66,101)"/>
<path d="M0,0 L3,1 L3,5 L-3,10 L-8,11 L-9,15 L-9,11 L-12,11 L-12,20 L-13,20 L-14,11 L-22,8 L-23,2 L-19,3 L-13,7 L-6,6 L-1,2 Z " fill="#986C69" transform="translate(176,198)"/>
<path d="M0,0 L6,2 L3,5 L-15,13 L-21,14 L-19,12 L-25,14 L-29,17 L-31,16 L-26,11 L-23,9 L-16,9 L-15,6 L-9,6 L-8,3 L-4,2 L-4,4 L-2,3 L-3,1 Z " fill="#231317" transform="translate(113,98)"/>
<path d="M0,0 L2,3 L-5,11 L-9,18 L-6,18 L-7,20 L-12,21 L-14,25 L-16,25 L-15,17 L-10,9 L-5,3 Z " fill="#8E6857" transform="translate(54,178)"/>
<path d="M0,0 L4,2 L9,6 L9,8 L11,8 L11,10 L8,11 L8,30 L5,37 L3,39 L4,30 L4,13 L0,3 Z " fill="#2F1E24" transform="translate(283,196)"/>
<path d="M0,0 L11,0 L12,1 L12,7 L2,7 L-6,8 L-7,5 L-18,6 L-15,4 L-9,2 L-1,1 Z " fill="#9D9BA4" transform="translate(150,24)"/>
<path d="M0,0 L13,0 L25,2 L26,4 L19,7 L15,8 L13,7 L4,6 L0,3 Z " fill="#ACA8B1" transform="translate(166,24)"/>
<path d="M0,0 L3,1 L6,4 L8,0 L12,6 L11,8 L9,7 L10,11 L13,16 L13,19 L15,19 L17,25 L12,23 L11,19 L9,19 L7,13 L5,13 L0,4 L-1,2 Z " fill="#77737C" transform="translate(286,134)"/>
<path d="M0,0 L9,0 L9,2 L11,3 L9,4 L10,6 L7,5 L0,5 L-6,8 L-10,13 L-11,24 L-12,24 L-13,16 L-14,12 L-11,5 L-4,1 Z " fill="#BC8B67" transform="translate(212,149)"/>
<path d="M0,0 L2,1 L-1,6 L-6,12 L-9,24 L-10,27 L-10,34 L-9,39 L-12,38 L-13,35 L-13,26 L-11,20 L-10,18 L-13,18 L-11,14 L-8,8 Z " fill="#C78F68" transform="translate(58,178)"/>
<path d="M0,0 L5,1 L4,5 L-13,10 L-16,10 L-16,8 L-18,7 L-15,6 L-13,3 Z " fill="#ADAAB2" transform="translate(139,28)"/>
<path d="M0,0 L1,4 L-2,7 L-3,10 L-5,11 L-4,15 L1,14 L-1,18 L-6,19 L-9,19 L-6,16 L-15,15 L-15,12 L-6,6 Z " fill="#836152" transform="translate(59,161)"/>
<path d="M0,0 L4,2 L11,10 L19,16 L21,17 L20,20 L12,20 L11,22 L10,18 L9,11 L5,10 L3,6 L1,5 Z " fill="#816059" transform="translate(267,157)"/>
<path d="M0,0 L7,0 L10,2 L9,4 L0,4 L0,7 L-2,8 L0,10 L-5,13 L-7,14 L-7,12 L-9,12 L-9,19 L-10,19 L-10,10 L-8,5 L-3,1 Z " fill="#301A17" transform="translate(212,153)"/>
<path d="M0,0 L4,0 L4,2 L15,1 L17,3 L6,5 L5,6 L-6,8 L-15,11 L-18,11 L-18,9 L-7,6 L-7,4 L-9,4 L-9,2 Z " fill="#151425" transform="translate(144,20)"/>
<path d="M0,0 L3,0 L6,0 L6,2 L2,6 L-3,14 L-8,24 L-10,25 L-9,17 L-5,8 Z " fill="#9C9AA1" transform="translate(31,299)"/>
<path d="M0,0 L2,4 L2,21 L-1,29 L-2,26 L-4,26 L-4,13 L-1,8 Z " fill="#634A45" transform="translate(286,205)"/>
<path d="M0,0 L4,4 L9,14 L9,18 L5,16 L-2,11 L0,15 L-1,18 L-3,18 L-3,10 L0,4 Z " fill="#7F574C" transform="translate(285,185)"/>
<path d="M0,0 L4,5 L7,15 L9,15 L9,17 L13,19 L14,23 L16,23 L16,25 L13,25 L12,27 L9,21 L2,17 Z " fill="#B77C51" transform="translate(255,150)"/>
<path d="M0,0 L4,2 L0,4 L-10,7 L-16,12 L-18,14 L-21,15 L-23,14 L-24,17 L-25,13 L-18,7 L-10,3 L-1,1 Z " fill="#87655A" transform="translate(108,107)"/>
<path d="M0,0 L3,0 L4,6 L-1,9 L-12,9 L-12,16 L-5,16 L-5,17 L-13,17 L-14,9 L-14,6 L-6,4 L0,4 Z " fill="#5A5761" transform="translate(181,49)"/>
<path d="M0,0 L11,1 L11,4 L10,5 L15,7 L21,10 L20,14 L15,12 L1,4 L-4,2 Z " fill="#26202D" transform="translate(134,279)"/>
<path d="M0,0 L12,0 L35,7 L37,9 L29,9 L8,3 L-1,3 Z " fill="#996D5C" transform="translate(184,96)"/>
<path d="M0,0 L10,0 L17,2 L22,4 L18,5 L18,7 L3,6 L1,5 L1,3 L4,3 L4,1 Z " fill="#232032" transform="translate(106,289)"/>
<path d="M0,0 L2,3 L5,12 L8,25 L8,42 L6,40 L4,26 L1,15 L3,15 L1,8 Z " fill="#7E7C87" transform="translate(308,161)"/>
<path d="M0,0 L3,1 L8,9 L9,15 L6,13 L8,20 L6,20 L-3,4 L-2,1 L0,2 Z " fill="#1C1A32" transform="translate(283,98)"/>
<path d="M0,0 L0,3 L-11,4 L-14,5 L19,6 L19,7 L-15,8 L-28,10 L-27,7 L-16,5 L-16,3 Z " fill="#4B4A56" transform="translate(164,64)"/>
<path d="M0,0 L4,3 L7,3 L12,8 L11,9 L16,13 L14,14 L15,16 L10,14 L-1,5 Z " fill="#322B39" transform="translate(49,241)"/>
<path d="M0,0 L4,0 L4,5 L10,6 L12,8 L5,9 L3,9 L3,16 L2,16 L1,11 L-1,13 L-2,8 L-5,8 L-5,6 L-1,6 L-1,4 L2,1 Z " fill="#2B283A" transform="translate(146,295)"/>
<path d="M0,0 L2,2 L4,12 L5,13 L5,19 L1,18 L-1,12 L-7,2 L-4,1 L0,4 Z " fill="#827F88" transform="translate(306,157)"/>
<path d="M0,0 L5,0 L8,2 L12,1 L13,6 L9,5 L0,5 L-5,7 L-7,11 L-10,18 L-11,18 L-10,9 L-5,4 L-3,4 L-2,1 Z " fill="#C89C71" transform="translate(208,121)"/>
<path d="M0,0 L3,1 L11,14 L14,19 L15,26 L17,26 L16,29 L13,27 L5,11 L0,2 Z " fill="#362627" transform="translate(250,121)"/>
<path d="M0,0 L7,6 L7,8 L9,8 L13,14 L11,14 L11,16 L7,14 L2,12 L2,9 L-1,5 Z " fill="#24243A" transform="translate(252,55)"/>
<path d="M0,0 L3,1 L3,11 L-2,15 L-5,16 L-16,16 L-22,12 L-20,11 L-10,13 L-5,13 L-5,11 L0,9 L2,10 L1,2 Z " fill="#DCD1CD" transform="translate(160,208)"/>
<path d="M0,0 L5,1 L11,3 L22,5 L22,6 L13,5 L13,7 L11,8 L12,10 L3,7 L-2,6 L2,5 L3,1 Z " fill="#2E2C3E" transform="translate(71,279)"/>
<path d="M0,0 L6,0 L5,2 L8,3 L1,7 L-10,9 L-8,7 L-10,6 L-10,4 Z " fill="#1D1626" transform="translate(252,257)"/>
<path d="M0,0 L1,0 L1,8 L-3,22 L-5,26 L-7,26 L-9,31 L-11,32 L-10,27 L-5,21 L-6,16 L-3,9 Z " fill="#514E5D" transform="translate(297,218)"/>
<path d="M0,0 L4,1 L8,6 L8,9 L10,10 L10,12 L24,12 L29,11 L28,13 L25,14 L11,14 L3,9 L0,4 Z " fill="#554D4B" transform="translate(133,216)"/>
<path d="M0,0 L10,1 L24,5 L25,7 L18,7 L6,4 L-17,3 L-17,2 L0,1 Z " fill="#2E2C3A" transform="translate(177,67)"/>
<path d="M0,0 L2,2 L2,5 L-7,12 L-11,14 L-17,14 L-14,11 L-3,3 Z " fill="#2E212F" transform="translate(279,240)"/>
<path d="M0,0 L1,2 L-2,6 L-1,1 Z M-6,6 L-3,7 L-3,20 L-1,20 L-2,25 L-7,30 L-6,24 Z M-3,6 Z " fill="#977568" transform="translate(285,211)"/>
<path d="M0,0 L9,1 L10,2 L17,3 L16,5 L10,5 L12,8 L16,10 L11,10 L4,5 L1,4 L0,7 Z " fill="#C3817B" transform="translate(152,196)"/>
<path d="M0,0 L4,2 L4,6 L6,6 L9,16 L2,16 Z " fill="#343240" transform="translate(262,313)"/>
<path d="M0,0 L2,2 L2,14 L-4,21 L-7,23 L-17,23 L-15,20 L-5,18 L-2,15 L-1,7 Z " fill="#3E231D" transform="translate(228,162)"/>
<path d="M0,0 L6,1 L7,4 L9,4 L11,9 L14,10 L14,18 L11,20 L8,10 L1,2 Z " fill="#BF9378" transform="translate(220,152)"/>
<path d="M0,0 L2,3 L4,0 L4,5 L5,6 L5,13 L3,17 L-2,20 L-1,10 Z M-4,20 L-2,21 Z " fill="#BF8E67" transform="translate(130,164)"/>
<path d="M0,0 L1,3 L-7,15 L-13,26 L-16,29 L-15,24 L-8,12 L-8,10 L-10,9 L-7,6 L-7,8 L-3,4 Z " fill="#1A192A" transform="translate(57,91)"/>
<path d="M0,0 L3,1 L2,5 L-3,14 L-5,14 L-5,11 L-7,11 L-6,6 L-1,1 Z " fill="#211E31" transform="translate(28,296)"/>
<path d="M0,0 L9,2 L13,9 L7,8 L7,6 L1,6 L-7,2 L-5,1 Z " fill="#5D5C63" transform="translate(64,284)"/>
<path d="M0,0 L4,1 L-4,4 L-11,7 L-18,7 L-21,5 L-20,3 L-9,1 L-9,3 Z " fill="#181120" transform="translate(227,269)"/>
<path d="M0,0 L5,0 L7,18 L5,20 L0,6 Z " fill="#3F3C4F" transform="translate(32,215)"/>
<path d="M0,0 L24,0 L26,3 L15,4 L6,3 L6,1 L0,1 Z " fill="#241A2A" transform="translate(163,88)"/>
<path d="M0,0 L12,0 L16,2 L15,6 L7,5 L-2,2 Z " fill="#1F1D28" transform="translate(54,320)"/>
<path d="M0,0 L1,4 L2,10 L5,9 L4,20 L2,16 L1,31 L-1,28 L-1,14 L-2,14 L-1,2 Z " fill="#252338" transform="translate(12,176)"/>
<path d="M0,0 L6,0 L0,7 L-6,15 L-9,22 L-11,22 L-10,15 L-8,10 L-5,9 L-3,6 L-1,6 Z " fill="#2B1B1F" transform="translate(48,176)"/>
<path d="M0,0 L8,0 L6,5 L8,5 L11,10 L14,15 L15,20 L13,20 L7,9 L0,2 Z " fill="#311D21" transform="translate(279,177)"/>
<path d="M0,0 L1,3 L-4,9 L-5,12 L-7,13 L-8,16 L-10,16 L-11,20 L-14,17 L-12,13 L-1,1 Z " fill="#94939B" transform="translate(57,113)"/>
<path d="M0,0 L2,0 L2,2 L4,2 L4,4 L-9,9 L-11,9 L-11,7 L-17,8 L-15,6 L-9,4 Z " fill="#232239" transform="translate(133,22)"/>
<path d="M0,0 L1,4 L-5,11 L-7,18 L-10,19 L-10,21 L-13,21 L-13,19 L-11,19 L-9,15 L-7,11 L-9,10 L-2,1 Z " fill="#6A6776" transform="translate(292,235)"/>
<path d="M0,0 L1,3 L1,5 L4,2 L3,9 L0,15 L-2,12 L-4,16 L-5,12 L-1,1 Z M-6,16 Z " fill="#1A182E" transform="translate(20,156)"/>
<path d="M0,0 L1,4 L3,5 L-3,18 L-6,19 L-5,10 Z " fill="#8E8C96" transform="translate(31,146)"/>
<path d="M0,0 L4,5 L8,11 L7,17 L4,14 L2,15 L1,9 L-3,3 L-3,1 Z " fill="#27243C" transform="translate(277,86)"/>
<path d="M0,0 L6,2 L6,5 L11,7 L8,8 L-11,5 L-14,3 L-3,4 L-3,2 Z " fill="#2D2A3C" transform="translate(127,292)"/>
<path d="M0,0 L15,0 L22,2 L22,3 L15,3 L14,2 L1,2 L-6,5 L-12,9 L-14,9 L-16,13 L-19,14 L-17,10 L-10,4 Z " fill="#ECC6A0" transform="translate(76,191)"/>
<path d="M0,0 L3,0 L3,8 L-2,16 L-4,14 L-4,9 L-2,9 L-1,2 Z " fill="#906657" transform="translate(283,203)"/>
<path d="M0,0 L5,3 L11,4 L13,11 L10,12 L4,9 L1,4 Z " fill="#946044" transform="translate(265,164)"/>
<path d="M0,0 L1,2 L3,2 L4,8 L2,14 L1,10 L-1,11 L-2,15 L-5,14 L-2,5 Z " fill="#242237" transform="translate(20,305)"/>
<path d="M0,0 L4,0 L3,6 L1,6 L-1,10 L-4,12 L-4,10 L-6,10 L-6,8 L-8,7 L-2,3 Z " fill="#3A3334" transform="translate(196,215)"/>
<path d="M0,0 L2,1 L0,5 L5,4 L4,6 L0,6 L0,8 L-6,11 L-8,10 L-6,7 L-4,8 L-5,6 L-10,8 L-12,6 Z " fill="#98959E" transform="translate(123,33)"/>
<path d="M0,0 L2,3 L5,12 L7,12 L11,18 L12,21 L8,19 L-2,6 L-4,2 L-1,3 Z " fill="#2B2836" transform="translate(37,235)"/>
<path d="M0,0 L10,0 L15,3 L11,6 L6,4 L-3,5 L-1,1 Z " fill="#F3D0A4" transform="translate(113,125)"/>
<path d="M0,0 L1,0 L2,14 L3,21 L0,21 L-2,17 L-2,5 Z " fill="#231D2C" transform="translate(40,214)"/>
<path d="M0,0 L9,3 L13,4 L27,5 L23,9 L12,7 L4,3 L-1,2 Z " fill="#F5D5AF" transform="translate(98,194)"/>
<path d="M0,0 L6,5 L7,10 L5,15 L3,16 L3,23 L2,23 L1,5 Z " fill="#8B5F52" transform="translate(279,179)"/>
<path d="M0,0 L6,3 L8,8 L5,9 L6,13 L4,12 L3,9 L-3,4 L-3,2 L0,2 Z " fill="#A56F50" transform="translate(271,173)"/>
<path d="M0,0 L9,3 L14,7 L17,12 L16,14 L13,12 L13,9 L4,6 L0,2 Z " fill="#89685C" transform="translate(234,111)"/>
<path d="M0,0 L5,2 L14,8 L16,11 L13,14 L2,3 L0,2 Z " fill="#26232E" transform="translate(264,101)"/>
<path d="M0,0 L4,2 L6,6 L6,19 L4,19 L0,2 Z " fill="#24212B" transform="translate(162,24)"/>
<path d="M0,0 L11,1 L12,3 L5,6 L1,7 L-1,6 L-10,5 L-10,4 L0,4 Z " fill="#9C99A2" transform="translate(180,25)"/>
<path d="M0,0 L15,0 L23,3 L23,4 L14,4 L13,3 L-4,3 L-3,1 Z " fill="#EFCEA9" transform="translate(240,191)"/>
<path d="M0,0 L2,0 L5,3 L6,9 L10,21 L10,26 L8,25 L3,9 Z " fill="#151323" transform="translate(305,152)"/>
<path d="M0,0 L1,0 L2,18 L-4,18 L-4,11 L-3,11 L-2,5 L-1,5 Z " fill="#252331" transform="translate(200,311)"/>
<path d="M0,0 L4,2 L8,8 L8,10 L12,11 L15,17 L11,16 L2,6 Z " fill="#332024" transform="translate(266,151)"/>
<path d="M0,0 L5,1 L5,3 L-5,5 L-5,2 Z M-9,2 L-7,6 L-9,6 L-11,10 L-12,18 L-13,18 L-13,8 Z M-7,4 Z " fill="#2B1B24" transform="translate(114,155)"/>
<path d="M0,0 L3,3 L12,20 L14,26 L11,24 L7,16 L7,13 L3,13 Z " fill="#77544B" transform="translate(251,125)"/>
<path d="M0,0 L2,1 L0,4 L0,7 L2,7 L2,10 L-4,11 L-8,9 L-4,3 Z " fill="#62606E" transform="translate(191,287)"/>
<path d="M0,0 L1,4 L-1,12 L-3,10 L-7,14 L-6,10 L-8,10 L-9,14 L-10,12 L-7,3 L-5,6 L-2,3 Z " fill="#26233D" transform="translate(320,221)"/>
<path d="M0,0 L3,1 L3,21 L2,21 L1,12 L-3,6 L-1,2 Z " fill="#8E6756" transform="translate(48,218)"/>
<path d="M0,0 L17,0 L26,1 L29,3 L29,8 L24,6 L24,4 L16,2 L0,1 Z " fill="#CFA479" transform="translate(159,177)"/>
<path d="M0,0 L7,1 L7,6 L5,8 L0,7 L-1,6 L-1,1 Z " fill="#C8C2C8" transform="translate(108,164)"/>
<path d="M0,0 L5,0 L7,2 L6,7 L5,8 L0,8 L-1,3 Z " fill="#D2CFD2" transform="translate(208,164)"/>
<path d="M0,0 L2,1 L-2,3 L-4,4 L-4,7 L-10,8 L-9,6 L-6,6 L-10,6 L-11,8 L-17,9 L-18,11 L-23,11 L-22,9 L-12,5 Z " fill="#292330" transform="translate(115,96)"/>
<path d="M0,0 L1,0 L2,11 L4,17 L4,19 L0,19 L-2,10 L-1,3 Z M-2,14 Z " fill="#CC9771" transform="translate(199,162)"/>
<path d="M0,0 L1,4 L1,16 L3,19 L0,19 L-3,15 L-3,4 L-1,1 Z " fill="#2A1414" transform="translate(105,161)"/>
<path d="M0,0 L3,1 L-8,11 L-13,12 L-16,12 L-11,7 L-4,3 Z " fill="#232028" transform="translate(66,101)"/>
<path d="M0,0 L1,3 L6,3 L4,6 L2,6 L-2,12 L-6,11 L-4,6 Z " fill="#232238" transform="translate(54,87)"/>
<path d="M0,0 L0,3 L-12,14 L-19,21 L-19,18 L-8,6 Z " fill="#151423" transform="translate(95,48)"/>
<path d="M0,0 L4,1 L-5,4 L-3,6 L-8,9 L-10,9 L-10,14 L-11,14 L-11,4 L-3,1 Z " fill="#54515F" transform="translate(211,297)"/>
<path d="M0,0 L2,1 L0,6 L-4,11 L-6,10 L-8,15 L-12,18 L-11,14 L-3,4 L-2,2 L0,2 Z " fill="#311E27" transform="translate(68,143)"/>
<path d="M0,0 L3,3 L9,14 L9,16 L6,15 L1,10 L-2,6 L0,6 Z " fill="#737180" transform="translate(281,104)"/>
<path d="M0,0 L4,2 L14,15 L17,19 L16,22 L9,13 L2,4 Z " fill="#151322" transform="translate(256,67)"/>
<path d="M0,0 L5,0 L4,4 L-8,7 L-10,4 Z " fill="#605E69" transform="translate(215,297)"/>
<path d="M0,0 L2,1 L2,13 L-1,20 L-3,22 L-2,13 Z " fill="#221721" transform="translate(289,213)"/>
<path d="M0,0 L3,2 L-4,8 L-8,16 L-10,19 L-9,10 L-7,6 L-4,6 L-3,2 Z " fill="#C4966E" transform="translate(62,195)"/>
<path d="M0,0 L3,1 L-3,5 L-7,7 L-21,7 L-21,6 L-10,6 L-10,3 L-7,3 L-5,1 Z " fill="#C69C71" transform="translate(132,192)"/>
<path d="M0,0 L3,1 L3,3 L6,3 L6,6 L8,6 L8,10 L6,10 L5,12 L2,7 L0,6 L-1,2 Z " fill="#58545E" transform="translate(285,141)"/>
<path d="M0,0 L5,2 L5,3 L-8,7 L-12,9 L-15,8 L-12,5 Z " fill="#C38F64" transform="translate(78,187)"/>
<path d="M0,0 L5,4 L10,11 L9,13 L4,11 L-1,4 Z " fill="#8F8E97" transform="translate(257,70)"/>
<path d="M0,0 L2,0 L2,16 L-1,15 L-2,6 L-3,4 L-1,4 Z " fill="#4C4854" transform="translate(77,309)"/>
<path d="M0,0 L4,0 L4,2 L8,2 L8,4 L4,5 L-3,5 L-8,3 L-5,1 Z " fill="#1C192D" transform="translate(236,286)"/>
<path d="M0,0 L3,0 L3,14 L1,10 L-1,16 L-2,16 L-2,5 Z " fill="#383649" transform="translate(296,211)"/>
<path d="M0,0 L2,0 L2,2 L-14,11 L-21,15 L-20,12 L-10,5 Z " fill="#131221" transform="translate(120,32)"/>
<path d="M0,0 L3,0 L3,2 L11,4 L14,6 L14,8 L8,7 L0,4 Z " fill="#62606A" transform="translate(130,288)"/>
<path d="M0,0 L5,2 L11,5 L10,9 L5,7 L-3,2 Z " fill="#312D3A" transform="translate(144,284)"/>
<path d="M0,0 L2,3 L0,7 L-5,11 L-7,11 L-7,8 L-16,8 L-16,7 L-7,6 L-1,2 Z M-8,11 Z " fill="#AC8263" transform="translate(128,177)"/>
<path d="M0,0 L1,2 L-3,8 L-6,11 L-4,12 L-6,16 L-6,14 L-11,15 L-10,11 L-7,8 L-5,8 L-3,4 Z " fill="#BF855D" transform="translate(66,161)"/>
<path d="M0,0 L13,0 L11,2 L-2,4 L-4,3 L-5,5 L-5,2 L-12,2 L-12,1 Z " fill="#815B54" transform="translate(153,94)"/>
<path d="M0,0 L6,1 L2,4 L-7,8 L-9,7 L-7,3 Z " fill="#19192F" transform="translate(107,35)"/>
<path d="M0,0 L9,2 L21,8 L17,9 L1,2 Z " fill="#2B1213" transform="translate(216,101)"/>
<path d="M0,0 L6,4 L6,6 L4,8 L-4,7 L-4,2 L-3,4 L-1,4 Z " fill="#5F5D6B" transform="translate(154,293)"/>
<path d="M0,0 L9,3 L8,5 L2,6 L0,5 L-4,6 L-4,4 L-7,3 Z " fill="#322A37" transform="translate(205,273)"/>
<path d="M0,0 L5,2 L8,9 L6,12 L6,10 L3,9 L0,3 Z " fill="#8D8993" transform="translate(286,128)"/>
<path d="M0,0 L2,1 L0,5 L-8,6 L-11,8 L-16,8 L-12,5 Z " fill="#846052" transform="translate(116,102)"/>
<path d="M0,0 L12,0 L12,2 L2,3 L2,10 L9,10 L9,11 L1,11 L0,3 Z " fill="#45434F" transform="translate(167,55)"/>
<path d="M0,0 L9,2 L9,0 L13,1 L13,5 L17,5 L16,7 L3,3 Z " fill="#1A1423" transform="translate(72,259)"/>
<path d="M0,0 L5,0 L0,4 L-13,9 L-16,11 L-20,10 L-17,10 L-17,8 L-9,5 L-5,5 L-5,3 L-1,3 Z " fill="#998992" transform="translate(262,250)"/>
<path d="M0,0 L10,0 L8,3 L-1,4 L-4,5 L-7,3 Z " fill="#F3D6AD" transform="translate(155,178)"/>
<path d="M0,0 L2,0 L2,2 L0,3 L2,5 L-3,8 L-5,9 L-5,7 L-7,7 L-7,14 L-8,14 L-8,5 L-5,2 L-4,4 Z " fill="#1E1013" transform="translate(210,158)"/>
<path d="M0,0 L6,0 L5,2 L-10,4 L-13,5 L-18,5 L-15,2 Z " fill="#9C6E5C" transform="translate(133,100)"/>
<path d="M0,0 L2,1 L-11,13 L-16,18 L-18,17 L-13,11 L-9,7 L-7,7 L-7,5 Z " fill="#858489" transform="translate(97,55)"/>
<path d="M0,0 L7,1 L8,6 L-6,4 L-7,2 L0,2 Z " fill="#4E4C58" transform="translate(123,287)"/>
<path d="M0,0 L1,4 L-8,14 L-10,13 L-3,2 Z " fill="#201D2C" transform="translate(293,242)"/>
<path d="M0,0 L2,2 L3,6 L-2,11 L-12,11 L-13,8 L-2,9 Z " fill="#CA9B6F" transform="translate(132,134)"/>
<path d="M0,0 L6,1 L12,3 L11,6 L-4,3 Z " fill="#2C212E" transform="translate(188,89)"/>
<path d="M0,0 L4,1 L6,3 L5,4 L10,8 L8,9 L9,11 L4,9 L1,6 Z " fill="#2F2533" transform="translate(55,246)"/>
<path d="M0,0 L6,0 L9,2 L10,5 L14,7 L7,7 L2,4 Z " fill="#201B1C" transform="translate(165,221)"/>
<path d="M0,0 L1,0 L1,12 L-2,19 L-4,20 L-4,13 L-1,8 Z " fill="#7C5B50" transform="translate(286,205)"/>
<path d="M0,0 L5,0 L4,5 L2,8 L-2,8 L-3,4 L-1,4 Z " fill="#18192E" transform="translate(26,145)"/>
<path d="M0,0 L12,4 L13,7 L16,8 L11,7 L-4,2 Z " fill="#C4966C" transform="translate(95,190)"/>
<path d="M0,0 L5,1 L2,3 L-3,7 L-5,10 L-6,21 L-7,21 L-7,8 L-3,2 Z " fill="#AE866D" transform="translate(207,152)"/>
<path d="M0,0 L4,1 L3,4 L-2,6 L-8,11 L-10,10 L-6,5 L-4,5 L-2,1 Z " fill="#9D9CA6" transform="translate(47,281)"/>
<path d="M0,0 L2,0 L2,2 L4,2 L5,0 L9,5 L8,8 L5,5 L3,8 L-1,4 Z " fill="#261F2A" transform="translate(45,237)"/>
<path d="M0,0 L2,0 L6,6 L5,14 L2,10 L0,5 Z " fill="#524F5C" transform="translate(38,233)"/>
<path d="M0,0 L4,2 L4,6 L3,9 L5,9 L8,14 L4,12 L0,6 Z " fill="#65616F" transform="translate(43,241)"/>
<path d="M0,0 L1,0 L2,14 L1,19 L-2,19 L-1,5 Z " fill="#2F2E3F" transform="translate(316,205)"/>
<path d="M0,0 L3,1 L3,11 L-2,15 L-5,15 L-5,11 L0,9 L2,10 L1,2 Z " fill="#D9CAC3" transform="translate(160,208)"/>
<path d="M0,0 L3,1 L3,5 L-1,8 L-7,8 L-2,3 Z " fill="#895352" transform="translate(176,198)"/>
<path d="M0,0 L1,0 L2,6 L3,10 L0,21 L-1,21 L-1,8 Z " fill="#7F7C88" transform="translate(17,181)"/>
<path d="M0,0 L4,4 L11,17 L11,19 L9,19 L0,3 Z " fill="#131222" transform="translate(280,99)"/>
<path d="M0,0 L6,1 L6,3 L12,2 L10,4 L-1,6 L-5,4 L0,2 Z " fill="#2F2838" transform="translate(239,262)"/>
<path d="M0,0 L3,3 L3,6 L5,6 L7,12 L2,10 L1,6 L-1,6 Z " fill="#807D86" transform="translate(296,147)"/>
<path d="M0,0 L3,1 L9,11 L8,15 L3,7 L0,2 Z " fill="#2A181D" transform="translate(250,121)"/>
<path d="M0,0 L8,0 L8,2 L0,4 L-6,8 L-8,7 L-3,2 Z " fill="#221927" transform="translate(90,107)"/>
<path d="M0,0 L7,1 L17,4 L17,7 L5,4 L2,3 L2,1 Z " fill="#391E20" transform="translate(200,96)"/>
<path d="M0,0 L2,0 L4,5 L3,11 L4,19 L2,19 L0,7 Z " fill="#1A162D" transform="translate(316,310)"/>
<path d="M0,0 L3,0 L6,0 L6,2 L-1,6 L-3,10 L-6,11 L-4,6 Z " fill="#918F97" transform="translate(31,299)"/>
<path d="M0,0 L6,1 L8,4 L6,4 L7,7 L2,5 L-3,3 Z " fill="#5A5865" transform="translate(50,278)"/>
<path d="M0,0 L2,0 L1,4 L-4,9 L-6,11 L-9,10 L-6,9 L-5,5 Z " fill="#926345" transform="translate(62,162)"/>
<path d="M0,0 L4,1 L5,10 L2,11 L0,5 Z " fill="#201D36" transform="translate(312,162)"/>
<path d="M0,0 L2,0 L0,5 L-4,12 L-6,11 L-5,5 Z " fill="#727078" transform="translate(36,150)"/>
<path d="M0,0 L1,0 L2,16 L-2,16 L-2,8 L-1,8 Z " fill="#2B2936" transform="translate(152,313)"/>
<path d="M0,0 L5,0 L5,5 L-2,5 L-2,3 L-5,2 Z " fill="#484555" transform="translate(189,303)"/>
<path d="M0,0 L2,0 L-1,11 L-3,12 L-5,5 Z " fill="#3A1D1A" transform="translate(45,197)"/>
<path d="M0,0 L1,3 L-5,7 L-15,7 L-16,5 L-5,4 Z " fill="#2A130D" transform="translate(126,177)"/>
<path d="M0,0 L11,0 L14,1 L16,4 L15,8 L8,2 L0,1 Z " fill="#B0866B" transform="translate(113,152)"/>
<path d="M0,0 L4,1 L3,3 L19,3 L19,4 L7,4 L6,6 L2,5 L-5,4 L-5,3 L0,2 Z " fill="#39394A" transform="translate(159,20)"/>
<path d="M0,0 L3,1 L-4,8 L-8,7 L-10,4 L-5,4 L-1,3 Z " fill="#9D8D95" transform="translate(175,290)"/>
<path d="M0,0 L7,1 L16,4 L17,6 L10,5 L0,1 Z " fill="#201724" transform="translate(87,261)"/>
<path d="M0,0 L2,1 L6,0 L6,2 L8,3 L3,6 L-4,5 L-2,3 L-4,1 Z " fill="#2B2232" transform="translate(258,255)"/>
<path d="M0,0 L2,4 L2,13 L3,18 L0,17 L-1,14 L-1,5 Z " fill="#B08168" transform="translate(46,199)"/>
<path d="M0,0 L3,1 L3,3 L7,3 L10,8 L9,10 L5,8 L1,4 L-1,3 Z " fill="#CA9D77" transform="translate(264,193)"/>
<path d="M0,0 L1,0 L1,7 L0,12 L-2,12 L-3,14 L-3,6 Z " fill="#9C99A1" transform="translate(21,175)"/>
<path d="M0,0 L7,0 L11,4 L11,6 L0,4 L4,2 Z " fill="#53515B" transform="translate(197,71)"/>
<path d="M0,0 L4,1 L8,4 L8,6 L5,6 L6,8 L2,7 L2,4 L-1,3 L1,3 Z " fill="#18182E" transform="translate(231,40)"/>
<path d="M0,0 L8,1 L15,4 L15,5 L8,5 L0,1 Z " fill="#98959F" transform="translate(56,324)"/>
<path d="M0,0 L2,1 L-4,8 L-11,10 L-11,8 Z " fill="#ABA9AF" transform="translate(48,284)"/>
<path d="M0,0 L4,1 L6,3 L-1,6 L-4,5 L-2,4 L-4,3 L-4,1 Z " fill="#181220" transform="translate(246,260)"/>
<path d="M0,0 L2,1 L0,5 L-5,9 L-8,8 L-3,2 L0,2 Z " fill="#4B4754" transform="translate(282,254)"/>
<path d="M0,0 L10,1 L10,3 L15,5 L18,7 L13,6 L2,2 Z " fill="#938085" transform="translate(68,252)"/>
<path d="M0,0 L1,0 L1,8 L-1,16 L-4,13 L-2,4 Z " fill="#4D4B5C" transform="translate(297,218)"/>
<path d="M0,0 L2,0 L2,3 L0,3 L0,6 L4,6 L5,9 L2,12 L2,9 L-3,7 L-3,3 Z " fill="#281D27" transform="translate(44,170)"/>
<path d="M0,0 L2,1 L1,5 L4,7 L-6,7 L-6,4 Z " fill="#6E5857" transform="translate(50,169)"/>
<path d="M0,0 L3,1 L3,9 L0,11 L-1,1 Z " fill="#CC9A77" transform="translate(231,161)"/>
<path d="M0,0 L6,5 L5,7 L1,6 L-2,3 L-8,2 L-8,1 L-1,1 Z " fill="#3D2426" transform="translate(222,155)"/>
<path d="M0,0 L2,1 L0,2 Z M-5,2 L0,2 L-3,6 L-6,7 L-8,6 L-9,9 L-10,5 Z " fill="#966F5E" transform="translate(93,115)"/>
<path d="M0,0 L1,3 L-5,14 L-8,17 L-7,12 Z " fill="#141322" transform="translate(49,103)"/>
<path d="M0,0 L12,0 L19,1 L19,2 L7,3 L0,2 Z " fill="#7B584E" transform="translate(172,94)"/>
<path d="M0,0 L10,1 L10,3 L4,2 L4,4 L8,5 L1,5 L-1,2 Z " fill="#131226" transform="translate(182,20)"/>
<path d="M0,0 L10,0 L9,4 L2,4 L-1,2 Z " fill="#231C29" transform="translate(207,272)"/>
<path d="M0,0 L4,4 L6,7 L6,10 L4,10 L4,8 L2,8 L2,10 L-1,9 L-1,7 L1,6 Z " fill="#231820" transform="translate(43,229)"/>
<path d="M0,0 L4,1 L5,3 L9,2 L10,5 L13,6 L13,8 L4,5 Z " fill="#C89D74" transform="translate(194,190)"/>
<path d="M0,0 L2,0 L5,3 L9,4 L9,6 L15,6 L15,7 L5,7 L0,2 Z " fill="#260F0C" transform="translate(204,177)"/>
<path d="M0,0 L2,0 L2,3 L4,3 L6,6 L7,14 L3,9 L0,3 Z " fill="#A3A1AA" transform="translate(300,150)"/>
<path d="M0,0 L2,2 L2,5 L-4,10 L-6,9 L-2,7 L-5,5 Z " fill="#352838" transform="translate(279,240)"/>
<path d="M0,0 L12,0 L11,2 L8,3 L-3,3 L-6,1 Z " fill="#5E5755" transform="translate(179,227)"/>
<path d="M0,0 L19,0 L21,1 L20,4 L14,2 L0,1 Z " fill="#C69970" transform="translate(241,190)"/>
<path d="M0,0 L12,0 L15,2 L10,3 L4,3 Z " fill="#CA936B" transform="translate(209,186)"/>
<path d="M0,0 L2,1 L2,3 L4,3 L5,1 L9,8 L8,10 L1,5 Z " fill="#827F89" transform="translate(270,100)"/>
<path d="M0,0 L8,0 L11,1 L11,3 L1,3 L-2,1 Z " fill="#221D22" transform="translate(145,226)"/>
<path d="M0,0 L4,0 L4,4 L-2,6 L-5,7 L-6,9 L-8,7 L-2,3 Z " fill="#4D433F" transform="translate(196,215)"/>
<path d="M0,0 L10,2 L17,4 L17,5 L8,5 L0,1 Z " fill="#EBC7A0" transform="translate(113,138)"/>
<path d="M0,0 L4,2 L12,11 L9,11 L0,2 Z " fill="#181727" transform="translate(244,54)"/>
<path d="M0,0 L4,2 L5,11 L3,10 L3,8 L1,8 Z " fill="#2C2A34" transform="translate(262,313)"/>
<path d="M0,0 L8,1 L9,3 L4,3 L11,6 L10,8 L1,5 Z " fill="#3F3442" transform="translate(84,259)"/>
<path d="M0,0 L2,2 L2,14 L0,19 L-2,16 L0,9 Z " fill="#43251B" transform="translate(128,160)"/>
<path d="M0,0 L2,0 L3,5 L2,7 L3,11 L1,11 L-1,7 L-1,1 Z " fill="#996345" transform="translate(261,154)"/>
<path d="M0,0 L6,2 L7,6 L3,7 L0,4 Z " fill="#95939E" transform="translate(280,121)"/>
<path d="M0,0 L1,2 L4,3 L-2,10 L-4,10 L-3,5 Z " fill="#73737E" transform="translate(47,110)"/>
<path d="M0,0 L3,0 L5,6 L4,10 L1,7 Z " fill="#908F9A" transform="translate(310,311)"/>
<path d="M0,0 L5,0 L6,3 L4,6 L4,2 L2,3 L1,7 L-2,6 Z " fill="#2A283E" transform="translate(17,313)"/>
<path d="M0,0 L3,1 L2,5 L-1,8 L-3,5 L-3,2 Z " fill="#181727" transform="translate(28,296)"/>
<path d="M0,0 L2,1 L0,4 L4,2 L4,4 L0,7 L-6,7 Z " fill="#1D1523" transform="translate(181,289)"/>
<path d="M0,0 L2,1 L2,3 L0,3 L-1,7 L-4,8 L-4,6 L-7,5 Z " fill="#362837" transform="translate(191,280)"/>
<path d="M0,0 L6,1 L10,3 L10,5 L3,4 L-2,3 Z " fill="#170F1C" transform="translate(131,276)"/>
<path d="M0,0 L2,0 L4,4 L4,8 L0,6 L-3,3 Z " fill="#645156" transform="translate(290,195)"/>
<path d="M0,0 L2,3 L2,5 L4,6 L2,6 L0,10 L-2,10 L-1,2 Z " fill="#745D5E" transform="translate(40,193)"/>
<path d="M0,0 L3,2 L2,17 L1,17 L0,5 L-1,1 Z " fill="#C79775" transform="translate(130,159)"/>
<path d="M0,0 L1,2 L1,6 L6,6 L8,5 L8,8 L0,9 L-3,4 L-3,2 Z " fill="#3F373C" transform="translate(207,165)"/>
<path d="M0,0 L6,1 L5,3 L13,4 L13,5 L3,5 L2,4 L0,6 Z " fill="#5D5B67" transform="translate(152,307)"/>
<path d="M0,0 L2,1 L-1,6 L-3,10 L-5,10 L-6,6 L-2,1 Z " fill="#706D7A" transform="translate(196,284)"/>
<path d="M0,0 L3,0 L3,7 L1,7 L0,12 L-1,9 Z " fill="#2C1C1D" transform="translate(164,209)"/>
<path d="M0,0 L4,1 L-2,5 L-4,5 L-6,9 L-9,10 L-7,6 Z " fill="#EECDAB" transform="translate(66,195)"/>
<path d="M0,0 L3,3 L4,7 L2,10 L-2,9 L0,8 Z " fill="#71544F" transform="translate(287,188)"/>
<path d="M0,0 L11,0 L11,1 L2,3 L-2,6 L-4,5 Z " fill="#250E0A" transform="translate(109,154)"/>
<path d="M0,0 L1,4 L-1,9 L-3,9 L-4,13 L-7,13 Z " fill="#7B594F" transform="translate(74,136)"/>
<path d="M0,0 L1,2 L5,4 L2,7 L-2,7 L-1,1 Z " fill="#8E8B97" transform="translate(50,105)"/>
<path d="M0,0 L4,2 L5,4 L1,7 L0,4 L-4,3 L-3,1 L0,2 Z " fill="#939299" transform="translate(249,62)"/>
<path d="M0,0 L9,0 L15,2 L15,3 L4,3 Z " fill="#F7D8B0" transform="translate(166,178)"/>
<path d="M0,0 L2,0 L2,13 L0,9 L-1,8 Z " fill="#CC9977" transform="translate(98,165)"/>
<path d="M0,0 L5,0 L5,5 L0,6 Z " fill="#E3E1E3" transform="translate(208,164)"/>
<path d="M0,0 L1,3 L-6,13 L-8,13 L-6,8 Z " fill="#161422" transform="translate(39,131)"/>
<path d="M0,0 L6,2 L11,4 L11,6 L6,7 L6,5 L1,3 Z " fill="#876252" transform="translate(222,105)"/>
<path d="M0,0 L4,2 L0,4 L-10,6 L-9,4 L-1,1 Z " fill="#956755" transform="translate(108,107)"/>
<path d="M0,0 L3,1 L3,3 L11,5 L11,6 L2,6 Z " fill="#5A5964" transform="translate(269,323)"/>
<path d="M0,0 L3,0 L4,3 L2,6 L-1,6 L-1,4 L-3,3 Z M-4,4 Z " fill="#201E31" transform="translate(33,289)"/>
<path d="M0,0 L1,0 L1,6 L-2,6 L-1,1 Z M-4,5 L-2,7 L-5,11 L-5,6 Z " fill="#1C1B31" transform="translate(319,218)"/>
<path d="M0,0 L4,2 L5,3 L5,9 L3,9 L0,3 Z " fill="#3D1B17" transform="translate(283,196)"/>
<path d="M0,0 L2,0 L2,6 L5,6 L4,8 L-1,8 L-2,3 L0,3 Z " fill="#997465" transform="translate(43,190)"/>
<path d="M0,0 L3,1 L1,3 L-6,6 L-9,6 L-9,4 Z " fill="#C09264" transform="translate(154,176)"/>
<path d="M0,0 L4,1 L3,4 L-5,4 L-6,6 L-6,3 Z " fill="#675252" transform="translate(284,173)"/>
<path d="M0,0 L1,4 L-3,13 L-4,9 Z " fill="#131220" transform="translate(23,158)"/>
<path d="M0,0 L8,0 L9,2 L3,4 L-2,2 Z " fill="#2C1F2D" transform="translate(219,99)"/>
<path d="M0,0 L13,0 L13,1 L5,2 L2,5 L0,3 Z " fill="#9F9CA8" transform="translate(166,24)"/>
<path d="M0,0 L3,0 L3,2 L7,0 L10,1 L3,5 L0,4 Z " fill="#1A1321" transform="translate(198,277)"/>
<path d="M0,0 L2,1 L1,4 L-6,5 L-10,7 L-10,5 Z " fill="#2E2C3C" transform="translate(276,272)"/>
<path d="M0,0 L6,1 L12,3 L12,4 L2,4 L0,3 Z " fill="#666371" transform="translate(71,261)"/>
<path d="M0,0 Z M-3,1 L0,2 L-2,5 L-9,5 L-13,3 Z " fill="#F6EEE2" transform="translate(161,228)"/>
<path d="M0,0 L1,0 L0,10 L-1,7 L-3,7 L-3,2 Z " fill="#755D57" transform="translate(285,224)"/>
<path d="M0,0 L2,0 L0,4 L-5,5 L-8,5 L-4,1 Z " fill="#87573C" transform="translate(58,175)"/>
<path d="M0,0 L2,0 L4,5 L4,11 L2,11 L0,3 Z " fill="#9E9CA6" transform="translate(307,165)"/>
<path d="M0,0 L2,2 L2,14 L1,14 L-1,7 Z " fill="#47291F" transform="translate(228,162)"/>
<path d="M0,0 L4,2 L7,7 L7,9 L3,7 L0,2 Z " fill="#2B1920" transform="translate(266,151)"/>
<path d="M0,0 L3,1 L7,8 L7,10 L4,10 L0,2 Z " fill="#121020" transform="translate(299,141)"/>
<path d="M0,0 L5,0 L4,2 L-2,4 L-8,4 L-6,2 Z " fill="#291315" transform="translate(128,96)"/>
<path d="M0,0 L3,1 L3,3 L1,3 L-1,6 L-5,5 L-5,2 L-1,1 Z " fill="#AEAAB5" transform="translate(116,38)"/>
<path d="M0,0 L3,0 L3,6 L0,12 L-1,8 Z " fill="#1E1B2E" transform="translate(18,315)"/>
<path d="M0,0 L1,4 L0,8 L2,8 L2,10 L-5,12 L-3,8 Z " fill="#3D2E37" transform="translate(286,227)"/>
<path d="M0,0 L1,4 L-2,8 L-3,16 L-4,16 L-4,6 Z " fill="#51342A" transform="translate(105,157)"/>
<path d="M0,0 L1,3 L-4,10 L-6,6 Z " fill="#A06B4E" transform="translate(69,154)"/>
<path d="M0,0 L2,2 L3,0 L5,0 L4,4 L-1,7 Z " fill="#8F6656" transform="translate(82,121)"/>
<path d="M0,0 L5,0 L3,2 L5,4 L-3,4 L-5,1 Z " fill="#332A38" transform="translate(147,88)"/>
<path d="M0,0 L5,2 L6,8 L-1,4 Z " fill="#262335" transform="translate(227,39)"/>
<path d="M0,0 L5,0 L6,3 L4,5 L-2,5 L1,3 L-1,1 Z " fill="#231F30" transform="translate(204,294)"/>
<path d="M0,0 L1,3 L-4,9 L-5,6 L-2,1 Z " fill="#8C7375" transform="translate(283,232)"/>
<path d="M0,0 L4,4 L3,9 L2,7 L-1,8 L-2,4 L-1,6 L1,6 Z " fill="#352323" transform="translate(204,170)"/>
<path d="M0,0 L1,0 L2,11 L3,16 L1,17 L0,13 Z " fill="#C39577" transform="translate(199,162)"/>
<path d="M0,0 L5,1 L3,8 L2,8 L2,3 L-4,2 Z " fill="#342C37" transform="translate(113,162)"/>
<path d="M0,0 L3,1 L3,3 L5,3 L5,6 L0,6 L-1,2 Z " fill="#504C57" transform="translate(285,141)"/>
<path d="M0,0 L1,3 L-3,11 L-4,11 L-3,2 Z " fill="#C49364" transform="translate(201,128)"/>
<path d="M0,0 L3,1 L-7,7 L-9,6 L-4,2 Z " fill="#2E212C" transform="translate(92,109)"/>
<path d="M0,0 L4,2 L5,6 L0,5 L-1,2 Z " fill="#19182E" transform="translate(263,69)"/>
<path d="M0,0 L1,2 L-4,10 L-5,10 L-4,2 L-2,3 Z " fill="#99969D" transform="translate(26,314)"/>
<path d="M0,0 L9,0 L10,3 L5,3 L5,1 L-3,2 Z " fill="#242233" transform="translate(235,285)"/>
<path d="M0,0 L2,1 L1,4 L-4,6 L-7,5 Z " fill="#CDB8AE" transform="translate(260,233)"/>
<path d="M0,0 L7,0 L6,4 L1,3 Z " fill="#DE9B94" transform="translate(162,201)"/>
<path d="M0,0 L1,0 L1,6 L-4,12 L-5,9 L-2,6 Z " fill="#30150F" transform="translate(228,171)"/>
<path d="M0,0 L6,0 L1,6 L-1,6 Z " fill="#301512" transform="translate(48,176)"/>
<path d="M0,0 L2,0 L1,9 L-2,8 L-1,3 Z " fill="#9B99A2" transform="translate(23,166)"/>
<path d="M0,0 L3,3 L3,9 L-2,7 L0,6 Z " fill="#85838F" transform="translate(281,104)"/>
<path d="M0,0 L9,2 L11,4 L3,4 L0,2 Z " fill="#876057" transform="translate(210,101)"/>
<path d="M0,0 L4,2 L4,9 L3,7 L1,7 Z " fill="#0E0C18" transform="translate(162,24)"/>
<path d="M0,0 L4,0 L6,4 L2,3 L0,7 Z " fill="#25223C" transform="translate(303,291)"/>
<path d="M0,0 L2,0 L2,2 L4,3 L4,6 L1,7 L1,5 L-1,4 L-1,3 L-3,2 Z " fill="#382D3C" transform="translate(196,277)"/>
<path d="M0,0 L4,2 L8,6 L4,6 L4,4 L0,2 Z " fill="#4D4A58" transform="translate(49,255)"/>
<path d="M0,0 L4,3 L7,3 L8,5 L6,5 L6,7 L2,5 Z " fill="#423743" transform="translate(49,241)"/>
<path d="M0,0 L3,4 L7,10 L2,9 L0,4 Z " fill="#A27964" transform="translate(101,173)"/>
<path d="M0,0 L4,2 L7,7 L3,6 L1,5 Z " fill="#7A5952" transform="translate(267,157)"/>
<path d="M0,0 L3,2 L3,4 L5,4 L5,7 L1,7 Z " fill="#886159" transform="translate(262,149)"/>
<path d="M0,0 L4,4 L5,8 L1,8 L0,8 Z " fill="#7A7683" transform="translate(293,134)"/>
<path d="M0,0 L2,0 L2,2 L-3,4 L-3,6 L-8,6 L-5,3 Z " fill="#C98B61" transform="translate(104,120)"/>
<path d="M0,0 L5,0 L7,3 L-2,4 L-2,1 Z " fill="#C89465" transform="translate(208,121)"/>
<path d="M0,0 L1,3 L-4,8 L-7,7 Z " fill="#8B8A91" transform="translate(57,113)"/>
<path d="M0,0 L0,3 L-6,8 L-8,8 L-7,4 L-1,1 Z " fill="#88858C" transform="translate(68,104)"/>
<path d="M0,0 L3,2 L2,13 L1,13 Z " fill="#272330" transform="translate(146,310)"/>
<path d="M0,0 L1,3 L-4,8 L-4,3 Z " fill="#A8A6AE" transform="translate(27,310)"/>
<path d="M0,0 L6,0 L2,3 L-2,4 L-4,2 Z " fill="#271B29" transform="translate(252,257)"/>
<path d="M0,0 L3,0 L1,4 L-1,4 L-1,6 L-4,6 L-4,4 L-2,4 Z " fill="#5C5967" transform="translate(283,250)"/>
<path d="M0,0 L4,1 L-2,6 L-3,3 Z " fill="#DFD5CE" transform="translate(192,216)"/>
<path d="M0,0 L1,0 L1,6 L4,7 L1,8 L-2,7 L-2,3 L0,3 Z " fill="#3B3236" transform="translate(167,213)"/>
<path d="M0,0 L5,5 L6,10 L2,8 L1,4 Z " fill="#331F1F" transform="translate(105,174)"/>
<path d="M0,0 L1,2 L4,3 L2,7 L1,4 L-1,9 L-2,5 Z " fill="#827F89" transform="translate(20,172)"/>
<path d="M0,0 L1,3 L5,2 L3,6 L3,4 L-2,5 L-1,1 Z " fill="#B27C57" transform="translate(57,171)"/>
<path d="M0,0 L4,2 L4,7 L2,7 L1,9 L1,4 Z " fill="#8A6051" transform="translate(276,169)"/>
<path d="M0,0 L5,2 L5,4 L7,5 L2,6 L0,5 L0,1 Z " fill="#302935" transform="translate(241,107)"/>
<path d="M0,0 L2,1 L-4,5 L-9,5 L-5,2 Z " fill="#775950" transform="translate(109,105)"/>
<path d="M0,0 L9,3 L10,5 L4,4 Z " fill="#191826" transform="translate(201,28)"/>
<path d="M0,0 L3,4 L5,10 L2,9 L0,4 Z " fill="#19172B" transform="translate(311,305)"/>
<path d="M0,0 L2,1 L2,6 L0,6 L-1,8 L-3,5 L-1,5 Z " fill="#2E2A40" transform="translate(294,279)"/>
<path d="M0,0 L3,0 L1,5 L-3,5 L-1,4 Z " fill="#83808D" transform="translate(282,246)"/>
<path d="M0,0 L5,5 L4,8 L0,5 L-2,3 L0,3 Z " fill="#372933" transform="translate(49,237)"/>
<path d="M0,0 L3,1 L-1,10 L-2,6 Z " fill="#CDA37F" transform="translate(54,204)"/>
<path d="M0,0 L2,1 L-1,7 L-4,8 L-2,3 Z " fill="#9B6D53" transform="translate(48,186)"/>
<path d="M0,0 L3,0 L3,8 L1,9 Z " fill="#F1CDA0" transform="translate(220,127)"/>
<path d="M0,0 L4,2 L5,4 L2,4 L2,6 L0,6 L-1,1 Z " fill="#63606C" transform="translate(277,129)"/>
<path d="M0,0 L2,0 L4,5 L3,8 L1,9 Z " fill="#1D1B36" transform="translate(316,310)"/>
<path d="M0,0 L3,1 L3,3 L-1,5 L-4,2 Z " fill="#696875" transform="translate(157,296)"/>
<path d="M0,0 L3,1 L-7,5 L-6,1 Z " fill="#A08F95" transform="translate(204,272)"/>
<path d="M0,0 L1,0 L1,7 L-1,8 L-3,4 Z " fill="#5A5769" transform="translate(294,230)"/>
<path d="M0,0 Z M-2,1 L0,2 L-6,9 L-8,8 Z " fill="#F7EBE0" transform="translate(200,222)"/>
<path d="M0,0 L6,1 L7,5 L1,3 Z " fill="#B48581" transform="translate(153,203)"/>
<path d="M0,0 L2,3 L2,6 L-3,6 L-2,4 L-4,2 Z " fill="#2C2834" transform="translate(114,170)"/>
<path d="M0,0 L6,2 L6,4 L3,4 L2,6 Z " fill="#BE8356" transform="translate(265,171)"/>
<path d="M0,0 L2,0 L2,6 L-1,7 L-1,1 Z " fill="#9896A1" transform="translate(26,158)"/>
<path d="M0,0 L1,3 L-2,8 L-4,8 L-2,2 Z " fill="#151423" transform="translate(30,145)"/>
<path d="M0,0 L6,3 L6,5 L1,5 Z " fill="#888491" transform="translate(294,140)"/>
<path d="M0,0 L4,1 L4,6 L1,5 Z " fill="#A09EA7" transform="translate(286,128)"/>
<path d="M0,0 L4,5 L6,9 L4,10 L0,4 Z " fill="#1B1829" transform="translate(274,89)"/>
<path d="M0,0 L4,2 L5,6 L1,5 Z " fill="#A09FA7" transform="translate(263,81)"/>
<path d="M0,0 L5,5 L3,5 L1,7 L-1,4 Z " fill="#87868E" transform="translate(257,70)"/>
<path d="M0,0 L12,0 L12,1 L3,2 L-1,3 Z " fill="#272740" transform="translate(163,20)"/>
<path d="M0,0 L1,0 L0,8 L-2,8 L-1,1 Z " fill="#211C2A" transform="translate(75,314)"/>
<path d="M0,0 L4,2 L7,8 L3,6 L0,2 Z " fill="#706D7B" transform="translate(48,250)"/>
<path d="M0,0 L3,3 L4,7 L1,7 Z " fill="#1B1624" transform="translate(39,228)"/>
<path d="M0,0 L1,0 L2,7 L-1,7 L-2,11 L-3,9 Z " fill="#2E2C40" transform="translate(313,224)"/>
<path d="M0,0 L1,3 L-2,7 L-7,8 L-2,3 Z " fill="#C7BEB9" transform="translate(197,221)"/>
<path d="M0,0 L4,1 L6,2 L6,4 L0,3 Z " fill="#884849" transform="translate(153,200)"/>
<path d="M0,0 L2,0 L2,6 L-1,7 Z " fill="#C69269" transform="translate(99,158)"/>
<path d="M0,0 L5,1 L2,3 L-3,6 L-3,2 Z " fill="#A68068" transform="translate(207,152)"/>
<path d="M0,0 L4,2 L2,5 L-1,5 Z " fill="#A39FA6" transform="translate(33,145)"/>
<path d="M0,0 L3,4 L3,6 L5,6 L4,9 L1,7 Z " fill="#331D20" transform="translate(262,141)"/>
<path d="M0,0 L3,1 L6,8 L4,8 L0,2 Z " fill="#100D1C" transform="translate(293,132)"/>
<path d="M0,0 L3,3 L5,9 L2,8 Z " fill="#72534D" transform="translate(251,125)"/>
<path d="M0,0 L3,2 L-1,5 L-4,5 L-3,2 Z " fill="#73707B" transform="translate(59,103)"/>
</svg>
