<svg width="30" height="30" viewBox="0 0 24 24" xmlns="http://www.w3.org/2000/svg">
  <path 
    d="m1.5,5.63c0,-1.04 0.84,-1.88 1.88,-1.88l17.25,0c1.03,0 1.87,0.84 1.87,1.88l0,12.75c0,1.03 -0.84,1.87 -1.87,1.87l-17.25,0c-1.04,0 -1.88,-0.84 -1.88,-1.87l0,-12.75zm1.5,0l0,1.5c0,0.2 0.17,0.37 0.38,0.37l1.5,0c0.2,0 0.37,-0.17 0.37,-0.37l0,-1.5c0,-0.21 -0.17,-0.38 -0.37,-0.38l-1.5,0c-0.21,0 -0.38,0.17 -0.38,0.38zm16.13,-0.38c-0.21,0 -0.38,0.17 -0.38,0.38l0,1.5c0,0.2 0.17,0.37 0.38,0.37l1.5,0c0.2,0 0.37,-0.17 0.37,-0.37l0,-1.5c0,-0.21 -0.17,-0.38 -0.37,-0.38l-1.5,0zm1.87,4.13c0,-0.21 -0.17,-0.38 -0.37,-0.38l-1.5,0c-0.21,0 -0.38,0.17 -0.38,0.38l0,1.5c0,0.2 0.17,0.37 0.38,0.37l1.5,0c0.2,0 0.37,-0.17 0.37,-0.37l0,-1.5zm0,3.75c0,-0.21 -0.17,-0.38 -0.37,-0.38l-1.5,0c-0.21,0 -0.38,0.17 -0.38,0.38l0,1.5c0,0.2 0.17,0.37 0.38,0.37l1.5,0c0.2,0 0.37,-0.17 0.37,-0.37l0,-1.5zm0,3.75c0,-0.21 -0.17,-0.38 -0.37,-0.38l-1.5,0c-0.21,0 -0.38,0.17 -0.38,0.38l0,1.5c0,0.2 0.17,0.37 0.38,0.37l1.5,0c0.2,0 0.37,-0.17 0.37,-0.37l0,-1.5zm-16.12,1.87c0.2,0 0.37,-0.17 0.37,-0.37l0,-1.5c0,-0.21 -0.17,-0.38 -0.37,-0.38l-1.5,0c-0.21,0 -0.38,0.17 -0.38,0.38l0,1.5c0,0.2 0.17,0.37 0.38,0.37l1.5,0zm-1.5,-3.75l1.5,0c0.2,0 0.37,-0.17 0.37,-0.37l0,-1.5c0,-0.21 -0.17,-0.38 -0.37,-0.38l-1.5,0c-0.21,0 -0.38,0.17 -0.38,0.38l0,1.5c0,0.2 0.17,0.37 0.38,0.37zm0,-3.75l1.5,0c0.2,0 0.37,-0.17 0.37,-0.37l0,-1.5c0,-0.21 -0.17,-0.38 -0.37,-0.38l-1.5,0c-0.21,0 -0.38,0.17 -0.38,0.38l0,1.5c0,0.2 0.17,0.37 0.38,0.37zm4.12,0c-0.41,0 -0.75,0.34 -0.75,0.75c0,0.41 0.34,0.75 0.75,0.75l9,0c0.41,0 0.75,-0.34 0.75,-0.75c0,-0.41 -0.34,-0.75 -0.75,-0.75l-9,0z" 
    fill="#121212" 
    fill-rule="evenodd" 
    clip-rule="evenodd"/>
</svg>