<svg xmlns="http://www.w3.org/2000/svg" viewBox="2 -1 28 28" width="28" height="28" fill="none">
  <!-- 작은 A (왼쪽) -->
  <g transform="translate(5, 8) scale(0.025)">
    <path d="M 252.804 90.185 L 200.419 90.185 C 183.407 90.185 168.322 101.118 163.027 117.293 L 47 471.815 L 119.74 471.815 L 156.187 360.441 L 265.597 360.441 L 293.947 471.815 L 380.525 471.815 L 290.929 119.818 C 286.492 102.385 270.794 90.185 252.804 90.185 Z M 172.257 311.338 L 212.867 187.244 L 221.508 187.244 L 253.096 311.338 L 172.257 311.338 Z" 
          fill="currentColor"
          stroke="currentColor"
          stroke-width="8"/>
  </g>
  
  <!-- 큰 A (오른쪽) -->
  <g transform="translate(13, 3) scale(0.035)">
    <path d="M 252.804 90.185 L 200.419 90.185 C 183.407 90.185 168.322 101.118 163.027 117.293 L 47 471.815 L 119.74 471.815 L 156.187 360.441 L 265.597 360.441 L 293.947 471.815 L 380.525 471.815 L 290.929 119.818 C 286.492 102.385 270.794 90.185 252.804 90.185 Z M 172.257 311.338 L 212.867 187.244 L 221.508 187.244 L 253.096 311.338 L 172.257 311.338 Z" 
          fill="currentColor"
          stroke="currentColor"
          stroke-width="8"/>
  </g>
<g stroke="currentColor" stroke-width="1.5" fill="none" transform="translate(5, 6) scale(0.9)">
    <line x1="2" y1="20" x2="24" y2="20"/>
    <polyline points="4,18 2,20 4,22"/>
    <polyline points="22,18 24,20 22,22"/>
  </g>
</svg>