<?xml version="1.0"?>
<svg width="28" height="28" viewBox="0 0 24 24" xmlns="http://www.w3.org/2000/svg" xmlns:svg="http://www.w3.org/2000/svg">
 <g class="layer">
  <title>Layer 1</title>
  <path d="m19.01,3.7c0.39,-0.14 0.59,-0.57 0.44,-0.96c-0.14,-0.39 -0.57,-0.59 -0.96,-0.44l-12.49,4.54l0,-3.84c0,-0.41 -0.34,-0.75 -0.75,-0.75l-1.5,0c-0.41,0 -0.75,0.34 -0.75,0.75l0,4.93l-1.01,0.37c-0.39,0.14 -0.59,0.57 -0.45,0.96c0.15,0.39 0.58,0.59 0.97,0.44l16.5,-6z" fill="#121212" id="svg_1"/>
  <path clip-rule="evenodd" d="m3.02,11.11l14.98,-5.44l0,3.42l4.01,1.46c0.39,0.14 0.59,0.57 0.44,0.96c-0.14,0.39 -0.57,0.59 -0.96,0.44l-0.49,-0.17l0,8.47l0.75,0c0.41,0 0.75,0.34 0.75,0.75c0,0.41 -0.34,0.75 -0.75,0.75l-19.5,0c-0.41,0 -0.75,-0.34 -0.75,-0.75c0,-0.41 0.34,-0.75 0.75,-0.75l0.75,0l0,-9.13l0.02,-0.01zm14.98,9.14l0,-9.57l1.5,0.55l0,9.02l-1.5,0zm-9,-6c-0.41,0 -0.75,0.34 -0.75,0.75l0,4.5c0,0.41 0.34,0.75 0.75,0.75l3,0c0.41,0 0.75,-0.34 0.75,-0.75l0,-4.5c0,-0.41 -0.34,-0.75 -0.75,-0.75l-3,0z" fill="#121212" fill-rule="evenodd" id="svg_2"/>
 </g>
</svg>