<?xml version="1.0"?>
<svg width="28" height="28" viewBox="0 0 24 24" xmlns="http://www.w3.org/2000/svg" xmlns:svg="http://www.w3.org/2000/svg">
  <path clip-rule="evenodd" d="m2.25,12c0,-5.38 4.37,-9.75 9.75,-9.75c5.38,0 9.75,4.37 9.75,9.75c0,5.38 -4.37,9.75 -9.75,9.75c-5.38,0 -9.75,-4.37 -9.75,-9.75zm8.71,-1.44c1.14,-0.57 2.43,0.46 2.12,1.7l-0.71,2.84l0.04,-0.02c0.38,-0.19 0.83,-0.04 1.01,0.33c0.19,0.38 0.04,0.83 -0.33,1.01l-0.05,0.02c-1.14,0.57 -2.43,-0.46 -2.12,-1.7l0.71,-2.84l-0.04,0.02c-0.37,0.19 -0.83,0.04 -1.01,-0.33c-0.19,-0.38 -0.04,-0.83 0.33,-1.01l0.05,-0.02zm1.04,-1.56c0.41,0 0.75,-0.34 0.75,-0.75c0,-0.41 -0.34,-0.75 -0.75,-0.75c-0.41,0 -0.75,0.34 -0.75,0.75c0,0.41 0.34,0.75 0.75,0.75z" fill="#121212" fill-rule="evenodd" id="svg_1"/>
</svg>