<?xml version="1.0"?>
<svg width="28" height="28" viewBox="0 0 24 24" xmlns="http://www.w3.org/2000/svg" xmlns:svg="http://www.w3.org/2000/svg">
 <g class="layer">
  <title>Layer 1</title>
  <path d="m3.38,19.5l17.25,0m-17.25,0c-0.63,0 -1.13,-0.5 -1.13,-1.12m1.13,1.12l1.5,0c0.62,0 1.12,-0.5 1.12,-1.12m-3.75,0l0,-12.75m0,12.75l0,-1.5c0,-0.63 0.5,-1.13 1.13,-1.13m18.37,2.63l0,-12.75m0,12.75c0,0.62 -0.5,1.12 -1.12,1.12m1.12,-1.12l0,-1.5c0,-0.63 -0.5,-1.13 -1.12,-1.13m0,3.75l-1.5,0c-0.63,0 -1.13,-0.5 -1.13,-1.12m2.63,-13.88l-17.25,0m17.25,0c0.62,0 1.12,0.5 1.12,1.13m-1.12,-1.13l-1.5,0c-0.63,0 -1.13,0.5 -1.13,1.13m3.75,0l0,1.5c0,0.62 -0.5,1.12 -1.12,1.12m-17.25,-3.75c-0.63,0 -1.13,0.5 -1.13,1.13m1.13,-1.13l1.5,0c0.62,0 1.12,0.5 1.12,1.13m-3.75,0l0,1.5c0,0.62 0.5,1.12 1.13,1.12m0,0l1.5,0m-1.5,0c-0.63,0 -1.13,0.5 -1.13,1.13l0,1.5c0,0.62 0.5,1.12 1.13,1.12m1.5,-3.75c0.62,0 1.12,-0.5 1.12,-1.12l0,-1.5m-1.12,2.62c0.62,0 1.12,0.5 1.12,1.13l0,1.5m0,-5.25l0,5.25m0,-5.25c0,-0.63 0.5,-1.13 1.13,-1.13l9.75,0c0.62,0 1.12,0.5 1.12,1.13m1.13,2.62l1.5,0m-1.5,0c-0.63,0 -1.13,-0.5 -1.13,-1.12l0,-1.5m1.13,2.62c-0.63,0 -1.13,0.5 -1.13,1.13l0,1.5m2.63,-2.63c0.62,0 1.12,0.5 1.12,1.13l0,1.5c0,0.62 -0.5,1.12 -1.12,1.12m-2.63,-6.37l0,5.25m-10.87,1.12l9.75,0m-9.75,0c-0.63,0 -1.13,-0.5 -1.13,-1.12m1.13,1.12c-0.63,0 -1.13,0.5 -1.13,1.13m0,-2.25c0,0.62 -0.5,1.12 -1.12,1.12m13.12,-1.12c0,0.62 -0.5,1.12 -1.12,1.12m1.12,-1.12c0,0.62 0.5,1.12 1.13,1.12m-2.25,0c0.62,0 1.12,0.5 1.12,1.13m-12,5.25l0,-5.25m0,5.25c0,0.62 0.5,1.12 1.13,1.12l9.75,0c0.62,0 1.12,-0.5 1.12,-1.12m-12,0l0,-1.5c0,-0.63 -0.5,-1.13 -1.12,-1.13m13.12,2.63l0,-5.25m0,5.25l0,-1.5c0,-0.63 0.5,-1.13 1.13,-1.13m-1.13,-2.62l0,1.5c0,0.62 0.5,1.12 1.13,1.12m-1.13,-2.62c0,-0.63 0.5,-1.13 1.13,-1.13m-13.13,1.13l0,1.5c0,0.62 -0.5,1.12 -1.12,1.12m1.12,-2.62c0,-0.63 -0.5,-1.13 -1.12,-1.13m-1.5,0l1.5,0m-1.5,0c-0.63,0 -1.13,0.5 -1.13,1.13l0,1.5c0,0.62 0.5,1.12 1.13,1.12m15.75,-3.75l1.5,0m0,0c0.62,0 1.12,0.5 1.12,1.13l0,1.5c0,0.62 -0.5,1.12 -1.12,1.12m-17.25,0l1.5,0m14.25,0l1.5,0" id="svg_1" stroke="#000000" stroke-linecap="round" stroke-linejoin="round" stroke-width="1"/>
 </g>
</svg>